<svg width="125" height="131" viewBox="0 0 125 131" fill="none" xmlns="http://www.w3.org/2000/svg">
<g clip-path="url(#clip0_867_1202)">
<path d="M11.2108 115.95L3.30276 128.358H11.2108V130.781H0V128.603L7.88208 116.195H0V114.919C-7.92755e-07 114.768 0.0296857 114.619 0.0873575 114.48C0.145029 114.342 0.229552 114.215 0.336081 114.109C0.442609 114.003 0.569048 113.919 0.708149 113.862C0.84725 113.804 0.996277 113.775 1.14669 113.776H11.2108V115.95Z" fill="#494949"/>
<path d="M19.8242 131C15.9573 131 13.0962 128.262 13.0962 124.028C13.0962 119.794 15.8349 117.078 19.8242 117.078C23.6687 117.078 26.3851 119.746 26.3851 123.709C26.3851 123.794 26.3851 123.876 26.3851 123.957C26.3774 124.256 26.253 124.54 26.0387 124.748C25.8244 124.956 25.5372 125.072 25.2385 125.071H15.9833C16.18 127.297 17.7683 128.644 19.8242 128.644C21.5386 128.644 22.4923 127.813 23.0082 126.759H26.0178C25.2607 129.126 23.1306 131 19.8242 131ZM16.0093 122.818H23.472C23.4238 120.737 21.7836 119.416 19.7054 119.416C17.8128 119.427 16.3025 120.7 16.0093 122.818Z" fill="#494949"/>
<path d="M34.3411 117.078C35.221 117.079 36.0906 117.267 36.8923 117.63C37.6939 117.993 38.4093 118.522 38.991 119.182V113.817C38.991 113.666 39.0207 113.517 39.0783 113.378C39.136 113.239 39.2205 113.113 39.3271 113.007C39.4336 112.901 39.56 112.817 39.6991 112.76C39.8382 112.702 39.9873 112.673 40.1377 112.674H41.8039V130.781H38.991V128.755C38.451 129.48 37.7437 130.062 36.9295 130.454C36.1152 130.846 35.2182 131.034 34.3152 131.004C30.7675 131.004 27.9546 128.143 27.9546 123.983C27.9546 119.824 30.7675 117.078 34.3411 117.078ZM34.9015 119.501C32.8234 119.501 30.8195 121.067 30.8195 123.98C30.8195 126.892 32.8271 128.577 34.9015 128.577C36.9759 128.577 38.9836 126.941 38.9836 124.028C38.9836 121.115 37.0093 119.501 34.9015 119.501Z" fill="#494949"/>
<path d="M44.8654 113.724C44.8683 113.374 44.9745 113.033 45.1705 112.744C45.3665 112.455 45.6437 112.23 45.9672 112.097C46.2907 111.965 46.6462 111.931 46.9889 112C47.3316 112.069 47.6463 112.237 47.8934 112.485C48.1406 112.732 48.3093 113.046 48.3782 113.389C48.4471 113.732 48.4132 114.087 48.2808 114.411C48.1484 114.734 47.9233 115.011 47.6339 115.207C47.3445 115.403 47.0036 115.509 46.6541 115.512C46.4183 115.515 46.1844 115.471 45.966 115.382C45.7477 115.293 45.5493 115.162 45.3826 114.995C45.2159 114.828 45.0843 114.63 44.9954 114.412C44.9066 114.193 44.8624 113.96 44.8654 113.724ZM46.3794 117.297H48.0234V130.781H45.2328V118.444C45.2328 118.292 45.2627 118.143 45.3208 118.003C45.3788 117.864 45.464 117.737 45.5712 117.63C45.6785 117.524 45.8058 117.439 45.9458 117.382C46.0857 117.325 46.2357 117.296 46.3869 117.297H46.3794Z" fill="#494949"/>
<path d="M67.8255 127.308H60.7041L59.4795 130.781H56.5664L62.3889 114.51C62.4685 114.288 62.615 114.095 62.8083 113.959C63.0016 113.823 63.2323 113.75 63.4688 113.75H65.8921L71.9929 130.781H69.0538L67.8255 127.308ZM64.2741 117.126L61.4871 125.045H67.0536L64.2741 117.126Z" fill="#494949"/>
<path d="M74.7277 119.572H73.1357V118.458C73.1357 118.154 73.2566 117.863 73.4716 117.648C73.6866 117.433 73.9783 117.312 74.2824 117.312H74.7277V116.358C74.7277 113.249 76.3197 111.906 79.8414 111.906V114.228C78.1307 114.228 77.5406 114.815 77.5406 116.358V117.312H80.0381V119.586H77.5592V130.796H74.7463L74.7277 119.572Z" fill="#494949"/>
<path d="M85.0553 130.781H82.2646V118.444C82.2646 118.14 82.3855 117.848 82.6005 117.633C82.8156 117.418 83.1072 117.297 83.4113 117.297H85.0553V119.256C85.8383 117.909 87.1854 117.078 89.0965 117.078V119.965H88.384C86.3282 119.965 85.0442 120.822 85.0442 123.675L85.0553 130.781Z" fill="#494949"/>
<path d="M91.0524 113.724C91.0546 113.373 91.1604 113.031 91.3566 112.741C91.5528 112.45 91.8305 112.224 92.1548 112.091C92.4792 111.958 92.8356 111.923 93.1794 111.992C93.5232 112.061 93.8389 112.23 94.0868 112.478C94.3347 112.726 94.5038 113.042 94.5727 113.386C94.6417 113.729 94.6074 114.086 94.4743 114.41C94.3411 114.734 94.115 115.012 93.8244 115.208C93.5338 115.404 93.1917 115.51 92.8411 115.512C92.6053 115.515 92.3714 115.471 92.153 115.382C91.9347 115.293 91.7363 115.162 91.5696 114.995C91.4029 114.828 91.2713 114.63 91.1824 114.412C91.0936 114.193 91.0494 113.96 91.0524 113.724ZM92.5665 117.297H94.2104V130.781H91.4198V118.444C91.4198 118.14 91.5406 117.848 91.7556 117.633C91.9707 117.418 92.2623 117.297 92.5665 117.297Z" fill="#494949"/>
<path d="M103.317 117.078C105.892 117.078 107.77 118.073 108.831 119.857C108.929 120.032 108.978 120.229 108.976 120.429C108.973 120.628 108.918 120.824 108.817 120.996C108.715 121.168 108.57 121.31 108.396 121.409C108.222 121.507 108.025 121.558 107.826 121.557H106.523C106.055 120.258 104.979 119.427 103.317 119.427C101.064 119.427 99.5724 121.089 99.5724 124.028C99.5724 126.967 101.057 128.651 103.317 128.651C104.979 128.651 106.007 127.909 106.523 126.525H109.533C108.772 129.167 106.62 131 103.317 131C99.4499 131 96.7075 128.262 96.7075 124.028C96.7075 119.794 99.4536 117.078 103.317 117.078Z" fill="#494949"/>
<path d="M117.511 117.078C118.407 117.051 119.296 117.234 120.108 117.612C120.92 117.99 121.632 118.553 122.187 119.256V118.444C122.187 118.139 122.308 117.848 122.523 117.633C122.738 117.418 123.03 117.297 123.334 117.297H125V130.781H122.187V128.774C121.628 129.488 120.91 130.061 120.09 130.448C119.269 130.835 118.37 131.024 117.463 131C113.963 131 111.154 128.139 111.154 123.98C111.154 119.82 113.963 117.078 117.511 117.078ZM118.101 119.501C116.019 119.501 114.019 121.067 114.019 123.98C114.019 126.892 116.027 128.577 118.101 128.577C120.176 128.577 122.183 126.941 122.183 124.028C122.183 121.115 120.205 119.501 118.101 119.501Z" fill="#494949"/>
<path d="M42.7983 88.559C78.7687 89.8985 92.9408 78.8412 92.9408 78.8412C56.0353 109.52 15.2964 97.6387 15.2964 97.6387C24.0357 96.5738 37.6178 84.0322 44.1231 76.1177C48.8732 70.3478 57.9131 63.4685 60.4143 61.6095C60.8373 61.2978 64.6782 58.7302 65.1383 58.4704C86.2908 46.389 108.557 54.9046 108.557 54.9046C70.9014 53.2905 42.7983 88.559 42.7983 88.559ZM87.0775 18.0777C68.5487 48.9344 51.5451 54.7636 51.5451 54.7636C97.4125 40.5968 109.703 0 109.703 0C104.04 6.74202 86.1164 11.2614 75.9335 12.3931C68.5116 13.2169 57.8017 17.0313 54.8775 18.1111C54.3839 18.2929 50.1349 20.111 49.6822 20.3374C28.0027 31.4689 22.9818 54.7525 22.9818 54.7525C42.1823 22.3485 87.0775 18.0777 87.0775 18.0777Z" fill="url(#paint0_linear_867_1202)"/>
</g>
<defs>
<linearGradient id="paint0_linear_867_1202" x1="10.9805" y1="92.2621" x2="122.79" y2="12.9298" gradientUnits="userSpaceOnUse">
<stop offset="0.09" stop-color="#2C2E85"/>
<stop offset="0.88" stop-color="#D4569A"/>
</linearGradient>
<clipPath id="clip0_867_1202">
<rect width="125" height="131" fill="white"/>
</clipPath>
</defs>
</svg>
