<svg width="65" height="69" viewBox="0 0 65 69" fill="none" xmlns="http://www.w3.org/2000/svg">
<g clip-path="url(#clip0_867_1683)">
<path d="M5.82962 61.073L1.71743 67.6085H5.82962V68.8848H0V67.7375L4.09868 61.202H0V60.5297C-4.12233e-07 60.4505 0.0154366 60.372 0.0454259 60.2989C0.0754153 60.2257 0.119367 60.1593 0.174762 60.1034C0.230157 60.0474 0.295905 60.0031 0.368238 59.973C0.44057 59.9429 0.518064 59.9275 0.596277 59.9277H5.82962V61.073Z" fill="white"/>
<path d="M10.3086 68.9999C8.29786 68.9999 6.81006 67.5575 6.81006 65.3276C6.81006 63.0976 8.23418 61.667 10.3086 61.667C12.3078 61.667 13.7203 63.0722 13.7203 65.1595C13.7203 65.2045 13.7203 65.2474 13.7203 65.2904C13.7163 65.4477 13.6516 65.5971 13.5402 65.7067C13.4287 65.8163 13.2794 65.8773 13.124 65.8768H8.31136C8.41364 67.0494 9.23955 67.7589 10.3086 67.7589C11.2001 67.7589 11.6961 67.3211 11.9643 66.766H13.5293C13.1356 68.0129 12.028 68.9999 10.3086 68.9999ZM8.32487 64.6904H12.2055C12.1804 63.594 11.3275 62.8983 10.2469 62.8983C9.26271 62.9041 8.47732 63.5745 8.32487 64.6904Z" fill="white"/>
<path d="M17.8576 61.667C18.3152 61.6677 18.7674 61.7668 19.1842 61.9578C19.6011 62.1489 19.9731 62.4275 20.2755 62.7752V59.9491C20.2755 59.8699 20.291 59.7915 20.321 59.7183C20.351 59.6452 20.3949 59.5787 20.4503 59.5228C20.5057 59.4669 20.5715 59.4226 20.6438 59.3924C20.7161 59.3623 20.7936 59.3469 20.8718 59.3472H21.7383V68.8847H20.2755V67.8175C19.9948 68.1991 19.627 68.5061 19.2036 68.7124C18.7801 68.9186 18.3137 69.018 17.8441 69.0019C15.9993 69.0019 14.5366 67.4951 14.5366 65.3042C14.5366 63.1133 15.9993 61.667 17.8576 61.667ZM18.149 62.9433C17.0684 62.9433 16.0263 63.768 16.0263 65.3022C16.0263 66.8364 17.0703 67.7237 18.149 67.7237C19.2277 67.7237 20.2717 66.8618 20.2717 65.3276C20.2717 63.7934 19.2451 62.9433 18.149 62.9433Z" fill="white"/>
<path d="M23.3302 59.9002C23.3317 59.7161 23.3869 59.5366 23.4888 59.3842C23.5908 59.2318 23.7349 59.1132 23.9031 59.0435C24.0713 58.9738 24.2562 58.9559 24.4344 58.9922C24.6126 59.0285 24.7762 59.1173 24.9047 59.2475C25.0333 59.3777 25.121 59.5434 25.1568 59.7239C25.1926 59.9044 25.175 60.0916 25.1062 60.262C25.0373 60.4323 24.9203 60.5783 24.7698 60.6815C24.6193 60.7848 24.442 60.8407 24.2603 60.8422C24.1377 60.8438 24.016 60.8205 23.9025 60.7737C23.7889 60.727 23.6858 60.6576 23.5991 60.5698C23.5124 60.4821 23.444 60.3776 23.3978 60.2626C23.3516 60.1476 23.3286 60.0244 23.3302 59.9002ZM24.1175 61.7823H24.9723V68.8846H23.5212V62.3862C23.5212 62.3066 23.5367 62.2277 23.5669 62.1542C23.5972 62.0807 23.6414 62.0139 23.6972 61.9578C23.753 61.9017 23.8192 61.8573 23.892 61.8272C23.9647 61.797 24.0427 61.7818 24.1213 61.7823H24.1175Z" fill="white"/>
<path d="M35.2693 67.0554H31.5662L30.9294 68.8847H29.4146L32.4423 60.3147C32.4836 60.1974 32.5598 60.096 32.6603 60.0243C32.7609 59.9525 32.8808 59.9141 33.0038 59.9141H34.2639L37.4363 68.8847H35.908L35.2693 67.0554ZM33.4225 61.6926L31.9733 65.8632H34.8679L33.4225 61.6926Z" fill="white"/>
<path d="M38.8581 62.9804H38.0303V62.3941C38.0303 62.2339 38.0931 62.0803 38.2049 61.9671C38.3167 61.8538 38.4684 61.7902 38.6266 61.7902H38.8581V61.2879C38.8581 59.6501 39.686 58.9426 41.5172 58.9426V60.1661C40.6276 60.1661 40.3208 60.4749 40.3208 61.2879V61.7902H41.6195V62.9882H40.3305V68.8925H38.8678L38.8581 62.9804Z" fill="white"/>
<path d="M44.2285 68.8846H42.7773V62.3862C42.7773 62.226 42.8402 62.0724 42.952 61.9592C43.0638 61.8459 43.2155 61.7823 43.3736 61.7823H44.2285V62.8142C44.6356 62.1048 45.3361 61.667 46.3299 61.667V63.1875H45.9594C44.8904 63.1875 44.2227 63.639 44.2227 65.1419L44.2285 68.8846Z" fill="white"/>
<path d="M47.3472 59.9002C47.3484 59.7156 47.4034 59.5354 47.5054 59.3824C47.6074 59.2293 47.7518 59.1102 47.9205 59.0401C48.0892 58.97 48.2745 58.9519 48.4533 58.9882C48.6321 59.0246 48.7962 59.1136 48.9251 59.2442C49.0541 59.3747 49.142 59.541 49.1778 59.7221C49.2137 59.9031 49.1959 60.0908 49.1266 60.2617C49.0574 60.4325 48.9398 60.5787 48.7887 60.6821C48.6376 60.7854 48.4597 60.8411 48.2774 60.8423C48.1548 60.8438 48.0331 60.8205 47.9196 60.7738C47.806 60.727 47.7029 60.6577 47.6162 60.5699C47.5295 60.4821 47.4611 60.3776 47.4149 60.2626C47.3687 60.1476 47.3457 60.0244 47.3472 59.9002ZM48.1346 61.7823H48.9894V68.8846H47.5383V62.3862C47.5383 62.2261 47.6011 62.0725 47.7129 61.9592C47.8247 61.846 47.9764 61.7823 48.1346 61.7823Z" fill="white"/>
<path d="M53.7249 61.667C55.0641 61.667 56.0405 62.1908 56.5924 63.1308C56.643 63.2227 56.669 63.3265 56.6676 63.4317C56.6663 63.5369 56.6377 63.64 56.5848 63.7305C56.5319 63.8211 56.4565 63.8961 56.3661 63.9479C56.2756 63.9997 56.1734 64.0266 56.0695 64.026H55.3921C55.149 63.3419 54.5894 62.9041 53.7249 62.9041C52.5536 62.9041 51.7778 63.7797 51.7778 65.3276C51.7778 66.8755 52.5497 67.7628 53.7249 67.7628C54.5894 67.7628 55.1239 67.3719 55.3921 66.6429H56.9571C56.5615 68.0344 55.4423 68.9999 53.7249 68.9999C51.7141 68.9999 50.2881 67.5575 50.2881 65.3276C50.2881 63.0976 51.7161 61.667 53.7249 61.667Z" fill="white"/>
<path d="M61.1059 61.6672C61.5714 61.6529 62.0339 61.7492 62.4561 61.9484C62.8783 62.1476 63.2486 62.4442 63.5373 62.8144V62.3864C63.5373 62.2262 63.6001 62.0726 63.7119 61.9594C63.8238 61.8461 63.9754 61.7825 64.1336 61.7825H65V68.8847H63.5373V67.8274C63.2468 68.2037 62.8732 68.5057 62.4466 68.7094C62.02 68.913 61.5522 69.0126 61.0808 69C59.2611 69 57.8003 67.4932 57.8003 65.3023C57.8003 63.1115 59.2611 61.6672 61.1059 61.6672ZM61.4127 62.9434C60.3301 62.9434 59.29 63.7681 59.29 65.3023C59.29 66.8365 60.334 67.7238 61.4127 67.7238C62.4914 67.7238 63.5354 66.8619 63.5354 65.3277C63.5354 63.7935 62.5068 62.9434 61.4127 62.9434Z" fill="white"/>
<path d="M22.2551 46.6456C40.9597 47.3511 48.3292 41.527 48.3292 41.527C29.1383 57.686 7.9541 51.428 7.9541 51.428C12.4985 50.8671 19.5612 44.2612 22.944 40.0925C25.414 37.0534 30.1148 33.43 31.4154 32.4508C31.6354 32.2866 33.6326 30.9342 33.8719 30.7974C44.8712 24.4339 56.4494 28.9192 56.4494 28.9192C36.8687 28.0691 22.2551 46.6456 22.2551 46.6456ZM45.2803 9.52182C35.6453 25.7746 26.8034 28.8449 26.8034 28.8449C50.6545 21.3831 57.0457 0 57.0457 0C54.1009 3.55114 44.7805 5.9316 39.4854 6.52769C35.626 6.96156 30.0569 8.97068 28.5363 9.53941C28.2796 9.63518 26.0701 10.5928 25.8347 10.7121C14.5614 16.5752 11.9505 28.8391 11.9505 28.8391C21.9348 11.7713 45.2803 9.52182 45.2803 9.52182Z" fill="white"/>
</g>
<defs>
<clipPath id="clip0_867_1683">
<rect width="65" height="69" fill="white"/>
</clipPath>
</defs>
</svg>
