<svg width="197" height="42" viewBox="0 0 197 42" fill="none" xmlns="http://www.w3.org/2000/svg">
<path d="M41.1176 16.3397L41.0906 16.2289L34.6144 19.5935L32.8499 20.5111L28.7882 22.6256L26.8612 23.623L20.9356 26.726C20.8409 26.7741 20.7306 26.7837 20.6288 26.7526C20.5247 26.7184 20.4387 26.645 20.3896 26.5487L19.8571 25.4715L19.6088 24.9839C19.575 24.9132 19.5199 24.8544 19.4509 24.8154C19.3812 24.7757 19.3011 24.7572 19.2207 24.7622C19.1404 24.7657 19.0631 24.7936 18.9996 24.842C18.9349 24.8888 18.8861 24.9537 18.8597 25.0282L18.4445 26.2118L17.569 28.7119L16.7476 31.0747V31.1234L17.6096 31.3495L23.4764 32.9099L23.5261 32.8789L22.4565 30.7466V30.7112C22.4578 30.7024 22.4578 30.6934 22.4565 30.6846V30.6225L22.7679 30.4674C22.77 30.4586 22.77 30.4495 22.7679 30.4408C22.7707 30.4494 22.7707 30.4587 22.7679 30.4674L37.0605 23.1797C36.9838 23.6673 36.8845 24.1505 36.7626 24.6248C36.0506 27.4149 34.5976 29.9695 32.552 32.0278L32.0421 32.5198L31.6359 32.8744C31.4373 33.0518 31.2297 33.2202 31.0176 33.3842C30.8055 33.5482 30.5663 33.7123 30.3677 33.8674L30.2549 33.9472L30.1421 34.0226L29.9165 34.1733C29.2262 34.6268 28.5021 35.0283 27.7502 35.3746C27.4795 35.5031 27.1816 35.6273 26.8883 35.7381C26.7077 35.8134 26.5227 35.8799 26.3377 35.9464L25.7916 36.1326L25.6021 36.1858L25.4125 36.2434C21.913 37.2373 18.1766 37.0627 14.789 35.7469H14.7393C14.3151 35.5829 13.8999 35.3968 13.4938 35.2061C13.3223 35.1219 13.1508 35.0333 12.9748 34.9357C12.7988 34.8382 12.6408 34.7495 12.4693 34.6698C12.2978 34.59 12.1399 34.4658 11.9774 34.3639L11.7337 34.191C11.3275 33.9206 10.9394 33.6502 10.5649 33.3488C10.4114 33.2335 10.2625 33.1094 10.1136 32.9853L9.66226 32.6085L9.35538 32.3203C9.25609 32.2272 9.15681 32.1253 9.05752 32.0278C8.701 31.6687 8.36253 31.2963 8.04211 30.9018C7.83 30.6358 7.62691 30.3831 7.43286 30.1172C6.92142 29.4232 6.46862 28.6893 6.07897 27.9229L6.05189 27.8741L6.02481 27.8254C5.84881 27.4663 5.67731 27.0984 5.52839 26.726C5.07812 25.6259 4.75566 24.4794 4.56712 23.3083C4.40906 22.4299 4.32304 21.5404 4.30989 20.6485C4.30997 19.3032 4.47975 17.9632 4.81534 16.6589C4.87852 16.4062 4.95073 16.158 5.02745 15.9142C5.25464 15.1874 5.53517 14.4778 5.86686 13.7908C5.88942 13.7376 5.9165 13.68 5.94358 13.6268C6.82066 11.8345 8.02616 10.2161 9.49979 8.85258C9.82022 8.55115 10.1542 8.26744 10.4972 7.99703L10.7138 7.82858C10.8627 7.71333 11.0116 7.60694 11.1651 7.49612L11.3952 7.34097C11.6028 7.19468 11.8195 7.05283 12.0361 6.91984C12.2527 6.78685 12.4874 6.64943 12.695 6.52975C12.9026 6.41006 13.1463 6.28594 13.3719 6.17511C13.5976 6.06429 13.8232 5.94904 14.0805 5.84265L14.3377 5.73182L14.8928 5.51905L15.4389 5.324C17.1588 4.73802 18.9663 4.43837 20.7867 4.43742H21.1297C21.3587 4.433 21.5878 4.44188 21.8157 4.46402C21.9917 4.46402 22.1677 4.49061 22.3437 4.50391C22.619 4.53051 22.8943 4.56597 23.1605 4.60144C23.5351 4.65463 23.9052 4.72112 24.2752 4.80092C24.5325 4.85411 24.7852 4.91617 25.0379 4.97823C25.3854 5.07132 25.7239 5.17328 26.0624 5.2841C26.2925 5.36389 26.5137 5.44369 26.7438 5.53234L27.4163 5.80275L27.7457 5.94904L27.9894 6.06872C28.1474 6.14408 28.3098 6.22388 28.4678 6.3081L28.707 6.43222L24.9116 8.37383L17.6908 12.0709L13.7194 14.079L13.575 13.8086L12.695 12.1285C12.6579 12.0597 12.6015 12.0028 12.5325 11.9645C12.4644 11.9251 12.3858 11.9065 12.3069 11.9113C12.227 11.9168 12.1503 11.9445 12.0857 11.9911C12.0234 12.0373 11.9763 12.1005 11.9503 12.1728L10.6687 15.6349L10.434 16.2599L9.98268 17.4746C9.96019 17.5278 9.9509 17.5855 9.9556 17.643C9.95832 17.6997 9.97211 17.7554 9.99622 17.807C10.0243 17.8571 10.061 17.9021 10.1045 17.94C10.1491 17.9763 10.2016 18.0021 10.258 18.0154L10.9124 18.1794L16.4182 19.5447L16.5536 19.4738L15.7322 17.9134C15.683 17.8188 15.6732 17.7091 15.7051 17.6075C15.7207 17.5574 15.7462 17.5108 15.7803 17.4704C15.8144 17.4301 15.8564 17.3968 15.9037 17.3726L20.3083 15.0719L22.8943 13.7421L32.1459 8.92794L35.7021 7.08829C35.7566 7.05834 35.8043 7.01758 35.842 6.9686C35.8783 6.91878 35.9016 6.86092 35.9097 6.80015C35.9233 6.74031 35.9233 6.67825 35.9097 6.6184C35.8915 6.55982 35.859 6.50653 35.8149 6.46325C33.6343 4.22336 30.9627 2.50115 28.003 1.42748L27.5517 1.27233C25.3771 0.533712 23.0921 0.157636 20.7912 0.159676C20.1098 0.159676 19.4373 0.190706 18.783 0.252767C17.9301 0.333042 17.0831 0.464801 16.2467 0.647295C15.6329 0.784714 15.0237 0.944299 14.4415 1.13491C14.1256 1.23244 13.8097 1.33883 13.5028 1.44965C13.0876 1.60037 12.6814 1.76882 12.2888 1.93283C8.19025 3.75554 4.79886 6.82717 2.61752 10.6922C2.41895 11.0424 2.23392 11.3971 2.0534 11.7694C1.4486 12.9981 0.973755 14.2844 0.636331 15.6083C0.21282 17.2591 -0.000916395 18.955 2.95315e-06 20.6574V21.0563C0.0256828 22.509 0.208737 23.9549 0.546072 25.3695C0.640844 25.7552 0.740129 26.1364 0.857466 26.5177C0.849424 26.5376 0.849424 26.5598 0.857466 26.5797C1.07724 27.3027 1.33789 28.0131 1.63821 28.7075C2.15429 29.8989 2.78284 31.0402 3.5156 32.1164C3.7232 32.409 3.9308 32.7015 4.15193 33.003C4.57164 33.5394 5.02293 34.0802 5.50582 34.59L5.60059 34.6964C6.593 35.7418 7.69415 36.6823 8.88603 37.5024C9.15681 37.693 9.45015 37.8792 9.74349 38.0565C13.0473 40.0982 16.8744 41.1745 20.7777 41.1595C21.3599 41.1595 21.9375 41.1595 22.5062 41.0886C25.8113 40.8221 29.0021 39.7759 31.8074 38.0388C32.221 37.7903 32.6203 37.5195 33.0033 37.2275C36.9463 34.3967 39.7576 30.3008 40.9506 25.6488C41.1549 24.8421 41.3056 24.0233 41.4019 23.1974C41.5058 22.4169 41.56 21.6307 41.5644 20.8436V20.6574C41.5715 19.2067 41.4218 17.7594 41.1176 16.3397Z" fill="#645F71"/>
<path d="M43.2523 8.58218C43.3089 8.59706 43.3614 8.62434 43.4058 8.66197C43.4514 8.69611 43.4885 8.74009 43.5141 8.79053C43.5397 8.84183 43.5551 8.89753 43.5592 8.95454C43.5599 9.01218 43.5492 9.0694 43.5276 9.12299L41.6006 14.0745C41.5728 14.146 41.5242 14.2077 41.4607 14.2519C41.3986 14.2961 41.3251 14.3223 41.2486 14.3272C41.1706 14.3312 41.0932 14.3133 41.0252 14.2756C40.9573 14.2379 40.9017 14.182 40.865 14.1144L40.4137 13.281C40.3637 13.1879 40.2783 13.1179 40.176 13.0863C40.0737 13.0547 39.9628 13.0642 39.8676 13.1126L39.651 13.2279L39.1049 13.4983L35.7743 15.2315L35.0929 15.5862L23.7292 21.4996C23.6454 21.5407 23.5496 21.5516 23.4584 21.5307L23.1832 21.4642C23.1237 21.452 23.068 21.4262 23.0207 21.3888C22.9737 21.353 22.9352 21.3077 22.9079 21.2558L21.6126 18.6582C21.5867 18.6117 21.5713 18.5603 21.5675 18.5074C21.5582 18.4561 21.5582 18.4036 21.5675 18.3523C21.5859 18.3029 21.6117 18.2566 21.6442 18.2149C21.6801 18.1752 21.7229 18.1422 21.7706 18.1173L33.3057 12.1285L34.0098 11.7606L37.3223 10.0406L37.8683 9.7569L38.0759 9.64608C38.1232 9.62251 38.1647 9.58926 38.1978 9.54855C38.2329 9.50853 38.259 9.46172 38.2745 9.41113C38.2859 9.36002 38.2859 9.3071 38.2745 9.25598C38.2706 9.20455 38.2552 9.1546 38.2294 9.1097L37.5524 7.81529C37.5208 7.74737 37.5083 7.67235 37.5163 7.59808C37.5275 7.52513 37.5585 7.45651 37.6062 7.39952C37.6539 7.34254 37.7164 7.29932 37.7871 7.27448C37.8591 7.25234 37.9363 7.25234 38.0082 7.27448L41.1673 8.06353L43.2523 8.58218Z" fill="#645F71"/>
<path d="M73.7374 30.72H70.2534L69.9736 28.2465C69.3332 29.15 68.4657 29.8754 67.4553 30.3521C66.2132 30.9371 64.8475 31.2243 63.4704 31.1899C62.0232 31.2166 60.5855 30.9554 59.2438 30.4221C57.9021 29.8889 56.684 29.0945 55.6629 28.0869C53.5238 26.0182 52.4557 23.289 52.4587 19.8993C52.4618 16.5096 53.5599 13.779 55.7532 11.7073C56.8117 10.6972 58.0633 9.90295 59.4358 9.37037C60.8084 8.83779 62.2747 8.57743 63.7502 8.60431C66.458 8.60431 68.6573 9.2456 70.3481 10.5282C71.9908 11.7058 73.2106 13.365 73.8321 15.2669L69.7253 16.7032C69.3387 15.4581 68.5422 14.3742 67.4608 13.6217C66.3794 12.8691 65.0743 12.4905 63.7502 12.5451C61.9328 12.5274 60.1804 13.2083 58.8672 14.4424C57.4982 15.7043 56.8138 17.5277 56.8138 19.9126C56.8138 22.2975 57.4772 24.1209 58.804 25.3828C59.4546 26.0205 60.2298 26.5223 61.0828 26.8583C61.9359 27.1942 62.8494 27.3573 63.7682 27.3377C65.5945 27.3377 66.995 26.8944 67.9698 26.0079C68.8467 25.2617 69.448 24.2519 69.6802 23.1353H62.7303V19.4427H73.7419L73.7374 30.72Z" fill="#645F71"/>
<path d="M88.0254 25.4272L91.4823 26.4334C91.0729 27.8112 90.2074 29.0155 89.0227 29.8556C87.7107 30.7793 86.1228 31.2472 84.5098 31.1855C83.4766 31.2069 82.4493 31.0263 81.4878 30.6542C80.5263 30.2821 79.6498 29.7258 78.9092 29.0178C77.3748 27.5402 76.6076 25.5838 76.6076 23.1487C76.5693 22.1003 76.7497 21.0554 77.1377 20.078C77.5258 19.1007 78.1133 18.2117 78.8641 17.4657C79.5426 16.7582 80.3627 16.1961 81.2729 15.8146C82.1831 15.4332 83.1637 15.2407 84.1533 15.2492C86.5135 15.2492 88.3639 15.9408 89.6907 17.3283C91.0175 18.7158 91.7125 20.6175 91.7125 23.0423C91.7125 23.2063 91.7125 23.388 91.6809 23.5919V24.0796L91.6493 24.2923H80.6828C80.6948 24.7587 80.8063 25.2174 81.01 25.6389C81.2136 26.0604 81.505 26.4352 81.8652 26.7393C82.599 27.3866 83.5553 27.7366 84.5414 27.719C86.3075 27.7042 87.4688 26.9403 88.0254 25.4272ZM80.7821 21.4907H87.6282C87.6037 20.6958 87.2692 19.9405 86.6941 19.3807C86.3605 19.0782 85.9673 18.8463 85.5388 18.6991C85.1103 18.5519 84.6556 18.4927 84.2029 18.5251C83.7566 18.5075 83.3113 18.5798 82.8945 18.7376C82.4777 18.8954 82.0982 19.1354 81.7794 19.4428C81.1956 19.9772 80.8392 20.7088 80.7821 21.4907Z" fill="#645F71"/>
<path d="M100.057 11.1932V15.6748H103.139V19.2832H100.057V25.5779C100.036 25.8181 100.066 26.0599 100.143 26.2885C100.221 26.5172 100.345 26.7279 100.508 26.9078C100.893 27.2024 101.376 27.3448 101.862 27.3067C102.292 27.3216 102.721 27.2798 103.139 27.1826V30.5694C102.393 30.8365 101.6 30.9599 100.806 30.9329C99.5068 30.9988 98.233 30.561 97.2589 29.7138C96.8124 29.2619 96.4657 28.7243 96.2405 28.1346C96.0153 27.545 95.9165 26.9161 95.9502 26.2872V19.2921H93.1837V15.6748H93.9599C94.2804 15.6979 94.6021 15.6523 94.9028 15.5413C95.2036 15.4304 95.4762 15.2566 95.702 15.0321C96.1295 14.5514 96.3524 13.9276 96.3247 13.2899V11.1932H100.057Z" fill="#645F71"/>
<path d="M120.69 30.7201H106.872V9.05206H120.69V13.0239H111.168V17.9755H119.788V21.7346H111.168V26.7482H120.69V30.7201Z" fill="#645F71"/>
<path d="M128.412 20.1077C127.666 20.9696 127.288 22.0813 127.356 23.2107C127.299 24.3386 127.676 25.4462 128.412 26.3137C128.756 26.6904 129.179 26.9893 129.652 27.1899C130.125 27.3904 130.636 27.4877 131.151 27.4751C131.662 27.4889 132.169 27.3919 132.637 27.1912C133.105 26.9905 133.522 26.6909 133.859 26.3137C134.612 25.4541 135.002 24.3436 134.947 23.2107C135.014 22.0761 134.623 20.9613 133.859 20.1077C133.517 19.7388 133.098 19.4468 132.631 19.2517C132.164 19.0566 131.659 18.963 131.151 18.9773C130.639 18.964 130.13 19.058 129.658 19.2528C129.186 19.4477 128.761 19.7391 128.412 20.1077ZM138.959 36.5094H134.897V29.2217C134.109 30.4688 132.689 31.0909 130.637 31.088C129.635 31.1161 128.639 30.9328 127.716 30.5504C126.792 30.1681 125.963 29.5955 125.285 28.8715C123.865 27.308 123.119 25.2641 123.204 23.1708C123.133 21.1232 123.855 19.1253 125.226 17.5809C125.888 16.8421 126.709 16.2562 127.629 15.8653C128.548 15.4745 129.545 15.2883 130.547 15.3202C131.566 15.2754 132.577 15.507 133.471 15.9895C134.118 16.3176 134.653 16.8246 135.01 17.4479V15.6748H138.959V36.5094Z" fill="#645F71"/>
<path d="M153.283 30.7201C153.191 30.1856 153.151 29.6439 153.161 29.102C152.751 29.7836 152.129 30.318 151.387 30.627C150.611 30.9566 149.774 31.1242 148.928 31.119C147.123 31.119 145.703 30.559 144.668 29.4389C143.618 28.2673 143.062 26.7476 143.111 25.1878V15.6748H147.249V24.3633C147.211 25.1619 147.464 25.9478 147.962 26.5797C148.223 26.8635 148.547 27.0854 148.908 27.229C149.269 27.3726 149.658 27.434 150.047 27.4087C150.437 27.4287 150.827 27.3679 151.192 27.2305C151.556 27.093 151.887 26.8819 152.164 26.6108C152.699 26.0148 152.978 25.2373 152.94 24.4431V15.6748H157.078V27.9983C157.076 28.9078 157.129 29.8167 157.236 30.7201H153.283Z" fill="#645F71"/>
<path d="M161 10.7632C160.995 10.4334 161.058 10.1061 161.186 9.80118C161.314 9.4963 161.504 9.22028 161.745 8.99C161.975 8.74615 162.254 8.55232 162.565 8.421C162.876 8.28968 163.211 8.22378 163.55 8.22754C163.886 8.22225 164.22 8.28484 164.53 8.41142C164.841 8.538 165.121 8.72587 165.355 8.9634C165.598 9.19741 165.789 9.47787 165.917 9.78743C166.045 10.097 166.108 10.4291 166.1 10.7632C166.103 11.0881 166.039 11.4103 165.911 11.7099C165.783 12.0095 165.594 12.2802 165.355 12.5053C165.118 12.7385 164.837 12.9235 164.527 13.0498C164.217 13.176 163.885 13.241 163.55 13.241C163.215 13.241 162.882 13.176 162.573 13.0498C162.263 12.9235 161.982 12.7385 161.745 12.5053C161.506 12.2802 161.317 12.0095 161.189 11.7099C161.061 11.4103 160.997 11.0881 161 10.7632ZM165.635 30.7112H161.496V15.6748H165.626L165.635 30.7112Z" fill="#645F71"/>
<path d="M175.166 11.1932V15.6748H178.262V19.2832H175.184V25.5779C175.164 25.8181 175.193 26.0599 175.27 26.2885C175.348 26.5172 175.472 26.7279 175.636 26.9078C176.02 27.2024 176.503 27.3448 176.989 27.3067C177.417 27.3274 177.845 27.2916 178.262 27.2004V30.5694C177.515 30.8368 176.723 30.9602 175.929 30.9329C174.63 30.9988 173.356 30.561 172.382 29.7138C171.93 29.264 171.578 28.7275 171.347 28.1379C171.117 27.5483 171.013 26.9182 171.041 26.2872V19.2921H168.288V15.6748H169.069C169.39 15.6979 169.711 15.6523 170.012 15.5413C170.313 15.4304 170.585 15.2566 170.811 15.0321C171.239 14.5514 171.462 13.9276 171.434 13.2899V11.1932H175.166Z" fill="#645F71"/>
<path d="M187.383 36.6468H182.996L186.607 28.8272L180.103 15.6837H184.738L188.813 24.4874L192.582 15.6837H197L187.383 36.6468Z" fill="#645F71"/>
</svg>
