<svg width="189" height="32" viewBox="0 0 189 32" fill="none" xmlns="http://www.w3.org/2000/svg">
<path d="M18.9422 12.3101C20.4327 13.8458 21.1781 16.1621 21.1786 19.2589V31.1596H14.2704V20.4483C14.2704 17.6078 13.1917 16.1876 11.0344 16.1876C9.84753 16.1876 8.89622 16.5973 8.18046 17.4167C7.46469 18.2361 7.10727 19.4652 7.10818 21.1041V31.1596H0.200012V2.67316H7.10818V12.2718C7.8725 11.5206 8.77625 10.9452 9.76217 10.5821C10.8132 10.1915 11.9203 9.99579 13.0345 10.0037C15.4826 10.0057 17.4518 10.7745 18.9422 12.3101Z" fill="#908B9E"/>
<path d="M26.4375 6.61757C25.6211 5.89627 25.2129 5.0004 25.2129 3.92994C25.2129 2.85948 25.6211 1.9636 26.4375 1.24231C27.2539 0.520549 28.3248 0.159668 29.6503 0.159668C30.9758 0.159668 32.0469 0.501802 32.8638 1.18607C33.6802 1.87081 34.0884 2.74817 34.0884 3.81816C34.0884 4.9383 33.6802 5.8651 32.8638 6.59858C32.0474 7.33206 30.9762 7.69927 29.6503 7.70021C28.3244 7.70021 27.2534 7.33933 26.4375 6.61757Z" fill="#BEB9CC"/>
<path d="M29.6503 10.2137C30.6133 10.2137 31.5368 10.6005 32.2178 11.2889C32.8987 11.9774 33.2814 12.9112 33.2816 13.8849V31.1597H26.0198V13.8849C26.0198 12.9112 26.4023 11.9775 27.0831 11.289C27.764 10.6005 28.6874 10.2137 29.6503 10.2137Z" fill="#908B9E"/>
<path d="M46.4392 10.9168C47.5414 10.4486 48.8036 10.2142 50.2258 10.2137V16.7144C49.7186 16.6458 49.2083 16.6075 48.6971 16.5998C47.2508 16.5998 46.1189 17.0179 45.3016 17.8541C44.4842 18.6903 44.0742 19.9704 44.0715 21.6944V31.1597H37.3159V10.556H43.7514V13.0266C44.4384 12.0897 45.3344 11.3864 46.4392 10.9168Z" fill="#908B9E"/>
<path d="M73.5153 22.4819H58.9175C59.2143 23.5296 59.7886 24.3339 60.6403 24.8946C61.492 25.4553 62.5603 25.7359 63.8451 25.7364C64.808 25.7364 65.6416 25.5992 66.3459 25.325C67.0501 25.0507 67.7602 24.6018 68.4761 23.9781L72.1812 27.8679C70.2275 30.0629 67.3746 31.1602 63.6225 31.1597C61.2762 31.1597 59.2138 30.7107 57.4355 29.8128C55.6571 28.9149 54.2802 27.6683 53.3048 26.0731C52.3279 24.4764 51.8395 22.6684 51.8395 20.649C51.8395 18.6546 52.3149 16.8656 53.2657 15.2821C54.2165 13.6985 55.5318 12.4578 57.2115 11.5599C58.8908 10.6625 60.7803 10.2137 62.8801 10.2137C64.8803 10.2137 66.6959 10.6315 68.3268 11.4669C69.9327 12.2801 71.2758 13.5385 72.1987 15.0947C73.149 16.6782 73.6244 18.5546 73.6249 20.7237C73.6258 20.7744 73.5893 21.3605 73.5153 22.4819ZM60.1951 16.1978C59.4667 16.8219 59.0029 17.6698 58.8038 18.7415H67.0311C66.8338 17.6698 66.3707 16.8219 65.6418 16.1978C64.9129 15.5737 64.0058 15.2616 62.9206 15.2616C61.8321 15.2616 60.9236 15.5737 60.1951 16.1978Z" fill="#908B9E"/>
<path d="M84.317 10.7774H89.1468V16.3221H84.5038V31.1597H77.3893V16.3221H74.4318V10.7774H77.3893V10.2303C77.3893 7.65358 78.1321 5.61024 79.6177 4.10028C81.1032 2.59032 83.1814 1.83534 85.8522 1.83534C86.7323 1.83387 87.6102 1.92553 88.4726 2.1089C89.3188 2.29127 90.0177 2.56459 90.5691 2.92884L88.8062 8.16099C88.1071 7.74477 87.3958 7.53642 86.6723 7.53592C85.9234 7.53592 85.343 7.77026 84.9312 8.23894C84.5194 8.70761 84.3135 9.39739 84.3135 10.3083L84.317 10.7774Z" fill="#908B9E"/>
<path d="M95.2645 29.8128C93.5414 28.9154 92.194 27.6688 91.2221 26.0731C90.2503 24.4773 89.7637 22.6693 89.7623 20.649C89.7623 18.6546 90.2489 16.8593 91.2221 15.263C92.1954 13.6668 93.5366 12.4263 95.2458 11.5416C96.9559 10.6568 98.8938 10.2142 101.059 10.2137C103.225 10.2133 105.169 10.6559 106.891 11.5416C108.612 12.4249 109.954 13.6593 110.915 15.2447C111.876 16.8301 112.356 18.6316 112.355 20.649C112.355 22.6684 111.875 24.4764 110.915 26.0731C109.955 27.6698 108.614 28.9163 106.891 29.8128C105.169 30.7112 103.225 31.1602 101.059 31.1597C98.9183 31.1597 96.9867 30.7107 95.2645 29.8128ZM104.086 24.2211C104.874 23.3613 105.268 22.1706 105.268 20.649C105.268 19.1528 104.874 17.9809 104.086 17.1333C103.298 16.2856 102.289 15.863 101.059 15.8653C99.8281 15.8653 98.8192 16.288 98.0327 17.1333C97.2462 17.9786 96.8523 19.1505 96.8509 20.649C96.8509 22.1706 97.2448 23.3613 98.0327 24.2211C98.8205 25.081 99.8302 25.5112 101.062 25.5116C102.291 25.5116 103.299 25.0815 104.086 24.2211Z" fill="#908B9E"/>
<path d="M117.841 30.5812C116.236 30.1946 114.945 29.6894 113.968 29.0656L116.051 24.2038C116.952 24.7773 118.023 25.2325 119.266 25.5693C120.469 25.9006 121.709 26.0704 122.955 26.0745C124.075 26.0745 124.872 25.9559 125.348 25.7187C125.824 25.4815 126.062 25.1386 126.06 24.69C126.06 24.2409 125.774 23.9229 125.202 23.7359C124.629 23.549 123.722 23.3681 122.48 23.1934C120.897 22.9942 119.551 22.7323 118.444 22.4077C117.345 22.0904 116.353 21.4698 115.576 20.6138C114.773 19.741 114.371 18.5197 114.371 16.9498C114.355 15.6982 114.755 14.4782 115.503 13.4888C116.257 12.4784 117.358 11.6798 118.805 11.0931C120.253 10.5064 121.988 10.2133 124.011 10.2137C125.447 10.2135 126.879 10.3639 128.285 10.6626C129.697 10.9623 130.878 11.385 131.828 11.9309L129.747 16.7575C128.006 15.7631 126.044 15.2468 124.051 15.2588C122.955 15.2588 122.151 15.3898 121.64 15.6519C121.129 15.914 120.873 16.2569 120.873 16.6807C120.873 17.1551 121.153 17.4856 121.713 17.672C122.273 17.8585 123.199 18.0518 124.49 18.2519C126.121 18.5014 127.473 18.7881 128.545 19.1123C129.615 19.4365 130.581 20.0504 131.339 20.8893C132.13 21.7494 132.526 22.9529 132.526 24.4997C132.537 25.7392 132.138 26.9458 131.394 27.9234C130.639 28.9338 129.525 29.7258 128.051 30.2994C126.578 30.8729 124.806 31.1597 122.736 31.1597C121.088 31.1609 119.445 30.9668 117.841 30.5812Z" fill="#908B9E"/>
<path d="M149.47 29.9614C148.871 30.3496 148.141 30.6458 147.28 30.8501C146.377 31.0609 145.455 31.1647 144.529 31.1595C141.883 31.1595 139.849 30.4896 138.426 29.1498C137.002 27.81 136.291 25.8129 136.291 23.1585V16.1248H133.333V10.6365H136.291V5.18671H143.406V10.6365H148.046V16.1248H143.403V23.0813C143.403 23.8291 143.596 24.4153 143.983 24.8399C144.37 25.2645 144.887 25.4773 145.534 25.4783C146.358 25.4783 147.082 25.2599 147.706 24.8232L149.47 29.9614Z" fill="#908B9E"/>
<path d="M171.954 22.4819H157.356C157.653 23.5296 158.228 24.3339 159.079 24.8946C159.931 25.4553 161 25.7359 162.285 25.7364C163.249 25.7364 164.082 25.5992 164.786 25.325C165.489 25.0507 166.2 24.6018 166.916 23.9781L170.622 27.8679C168.668 30.0629 165.815 31.1602 162.062 31.1597C159.715 31.1597 157.652 30.7107 155.874 29.8128C154.096 28.9149 152.719 27.6683 151.743 26.0731C150.766 24.4764 150.277 22.6684 150.277 20.649C150.277 18.6546 150.753 16.8656 151.704 15.2821C152.655 13.6985 153.97 12.4578 155.65 11.5599C157.33 10.6625 159.22 10.2137 161.32 10.2137C163.321 10.2137 165.135 10.6315 166.764 11.4669C168.37 12.2799 169.713 13.5384 170.636 15.0947C171.587 16.6782 172.062 18.5546 172.062 20.7237C172.066 20.7744 172.029 21.3605 171.954 22.4819ZM158.632 16.1978C157.903 16.8219 157.439 17.6698 157.243 18.7415H165.468C165.271 17.6698 164.808 16.8219 164.079 16.1978C163.35 15.5737 162.443 15.2621 161.357 15.263C160.27 15.2621 159.363 15.5737 158.635 16.1978H158.632Z" fill="#908B9E"/>
<path d="M184.412 10.9168C185.515 10.4486 186.777 10.2142 188.2 10.2137V16.7144C187.693 16.6458 187.182 16.6075 186.671 16.5998C185.224 16.5998 184.092 17.0179 183.275 17.8541C182.457 18.6903 182.048 19.9704 182.047 21.6944V31.1597H175.29V10.556H181.727V13.0266C182.415 12.0897 183.31 11.3864 184.412 10.9168Z" fill="#908B9E"/>
</svg>
