<svg width="178" height="47" viewBox="0 0 178 47" fill="none" xmlns="http://www.w3.org/2000/svg">
<g clip-path="url(#clip0_523_3824)">
<path d="M61.2308 19.9522C61.2793 21.2771 60.9579 22.5894 60.3024 23.7431C59.6469 24.8967 58.683 25.8465 57.5179 26.4866C56.281 27.2151 54.8706 27.5994 53.4338 27.5994C51.997 27.5994 50.5865 27.2151 49.3496 26.4866C47.6417 25.6356 46.461 24.1555 45.2283 22.6754C42.9338 19.9744 40.5427 17.3547 38.2036 14.6906C37.7358 14.1578 37.3942 14.1651 36.815 14.6091C33.659 17.0068 31.4387 20.1519 29.3892 23.4451C27.5402 26.4052 25.7432 29.3653 23.7754 32.2588C22.2219 34.6743 19.8506 36.4545 17.0922 37.2761C10.2085 39.2594 2.01794 34.76 0.933785 26.8196C0.451112 23.2896 1.513 20.1594 3.39914 17.2807C7.93366 10.0312 14.9052 4.62316 23.0699 2.02135C27.4458 0.631046 32.09 0.293743 36.6219 1.0371C39.9809 1.47429 43.2639 2.36815 46.3793 3.69377C49.5387 5.17789 52.4813 7.08234 55.1268 9.35498C56.9126 10.813 58.4346 12.5651 59.6269 14.5352C60.6634 16.154 61.2194 18.0319 61.2308 19.9522Z" fill="#908B9E"/>
<path d="M46.1045 38.1049C46.1045 39.3112 46.1045 40.5174 46.1045 41.7311C46.1289 41.8486 46.1243 41.9703 46.0911 42.0856C46.0578 42.201 45.9969 42.3066 45.9136 42.3932C45.8303 42.4799 45.727 42.5451 45.6128 42.5832C45.4986 42.6212 45.3768 42.631 45.2579 42.6117C44.8718 42.6117 44.5154 42.6117 44.0995 42.6117C43.8991 42.6363 43.6958 42.6199 43.502 42.5636C43.3081 42.5072 43.1279 42.4121 42.9722 42.2839C42.8165 42.1558 42.6887 41.9974 42.5965 41.8183C42.5043 41.6393 42.4498 41.4434 42.4361 41.2427C42.3677 40.8367 42.333 40.4258 42.3322 40.0142C42.3322 38.4528 42.3322 36.8913 42.3322 35.3298C42.355 35.1736 42.3413 35.0143 42.2924 34.8642C42.2434 34.714 42.1604 34.5771 42.0499 34.4641C41.9393 34.351 41.8041 34.2648 41.6548 34.2122C41.5054 34.1596 41.3459 34.1419 41.1886 34.1606C40.446 34.1606 40.1861 34.5972 40.1936 35.3225C40.1936 37.3279 40.1936 39.3334 40.1936 41.3315C40.1936 42.4489 40.0451 42.5821 38.8941 42.6117H38.2703C36.9337 42.6117 36.4287 42.1159 36.4139 40.806C36.4139 39.1854 36.4139 37.5573 36.4139 35.9367C36.4329 35.6439 36.4104 35.3499 36.347 35.0634C36.2843 34.769 36.1087 34.5107 35.8577 34.3434C35.6066 34.1762 35.2999 34.1132 35.003 34.168C34.3347 34.2346 34.149 34.6564 34.1564 35.2781C34.1564 37.3131 34.1564 39.3482 34.1564 41.3833C34.1564 42.4859 34.0525 42.5895 32.9312 42.6117H32.1292C31.0525 42.5747 30.6441 42.2269 30.4436 41.1761C30.4038 40.9439 30.3864 40.7085 30.3916 40.473C30.3916 38.4083 30.3916 36.3511 30.3916 34.2864C30.3587 33.8265 30.4596 33.3668 30.6822 32.9626C30.9048 32.5583 31.2396 32.2266 31.6465 32.0071C33.6886 30.8379 35.7827 30.4679 38.0104 31.5557C38.3964 31.7105 38.8274 31.7105 39.2134 31.5557C40.5235 30.8895 42.0442 30.7646 43.4461 31.2079C44.2149 31.403 44.8951 31.8511 45.3763 32.4798C45.8575 33.1085 46.1115 33.8807 46.097 34.6712C46.1565 35.8035 46.1045 36.9505 46.1045 38.1049Z" fill="#908B9E"/>
<path d="M120.325 41.7755C119.538 41.8273 118.84 41.9235 118.097 41.9161C117.154 41.9487 116.226 41.6654 115.463 41.1114C114.7 40.5575 114.145 39.7648 113.887 38.8598C113.1 36.5139 113.404 33.0728 115.862 31.7556C116.895 31.155 118.075 30.8516 119.27 30.879C120.466 30.9065 121.63 31.2636 122.634 31.9109C123.063 32.1487 123.415 32.5032 123.649 32.9331C123.883 33.3629 123.99 33.8503 123.956 34.3382C123.897 36.6101 123.867 38.882 123.956 41.1465C124.112 45.2684 121.394 46.7781 117.889 46.6523C117.126 46.6022 116.375 46.4376 115.661 46.1638C115.391 46.0784 115.142 45.9382 114.928 45.752C114.715 45.5659 114.542 45.3378 114.422 45.082C114.301 44.8263 114.235 44.5485 114.227 44.266C114.219 43.9835 114.27 43.7025 114.377 43.4405C114.585 42.8115 114.889 42.4859 115.624 42.8411C116.158 43.1364 116.745 43.3232 117.352 43.3905C117.959 43.4578 118.573 43.4044 119.159 43.2334C119.492 43.1604 119.789 42.9757 120.001 42.7103C120.213 42.4449 120.328 42.1149 120.325 41.7755ZM120.325 36.4843C120.325 36.1661 120.325 35.8405 120.325 35.5223C120.325 35.056 120.54 34.464 119.857 34.2494C119.523 34.1219 119.158 34.0989 118.81 34.1835C118.462 34.2682 118.149 34.4564 117.911 34.7231C117.546 35.2383 117.344 35.8515 117.334 36.4826C117.323 37.1136 117.504 37.7332 117.852 38.2604C118.071 38.5225 118.368 38.7093 118.7 38.7943C119.032 38.8793 119.382 38.8582 119.701 38.734C120.384 38.5268 120.34 37.9939 120.332 37.4537L120.325 36.4843Z" fill="#908B9E"/>
<path d="M53.1738 38.3048C53.6119 36.4547 54.0575 34.6046 54.4659 32.7472C54.7778 31.3337 55.2085 30.9933 56.6342 31.0747C57.6812 31.1413 58.305 31.6667 58.1862 32.7102C58.0163 34.1672 57.7257 35.6078 57.3174 37.0171C56.593 39.8325 55.3655 42.4947 53.6936 44.8762C53.1825 45.5086 52.532 46.015 51.7926 46.3562C51.3689 46.5501 50.8914 46.5941 50.4392 46.4811C49.9869 46.3681 49.5868 46.1048 49.305 45.7346C48.6515 44.9206 48.6887 44.4322 49.4461 43.7218C49.6243 43.5589 49.8025 43.4036 49.9585 43.2334C50.3149 42.8337 50.8644 42.4933 50.9387 42.0123C51.0129 41.5313 50.4114 41.2057 50.2406 40.7468C49.4832 38.7438 48.7406 36.726 48.0129 34.6934C47.7902 34.057 47.6936 33.3762 47.5154 32.725C47.4198 32.458 47.4341 32.1642 47.5551 31.9077C47.6762 31.6512 47.8941 31.4528 48.1614 31.3559C48.4531 31.1724 48.7855 31.0629 49.1295 31.0372C49.4734 31.0114 49.8185 31.0701 50.1344 31.2082C50.4503 31.3462 50.7274 31.5594 50.9414 31.829C51.1554 32.0986 51.2998 32.4164 51.3619 32.7546C51.8001 34.316 52.1936 35.8849 52.6095 37.4537C52.6837 37.7349 52.7728 38.0087 52.8545 38.2899L53.1738 38.3048Z" fill="#908B9E"/>
<path d="M75.0649 42.819C71.6342 42.819 69.4065 40.4879 69.4288 36.8988C69.451 33.3096 71.7827 30.8824 75.0574 30.8972C78.4807 30.8972 80.6862 33.2874 80.6787 36.958C80.6713 40.6285 78.5921 42.819 75.0649 42.819ZM73.2307 36.8988C73.3662 37.5712 73.5625 38.2301 73.8173 38.8673C73.9437 39.0804 74.1217 39.2585 74.3351 39.3854C74.5484 39.5122 74.7903 39.5837 75.0385 39.5933C75.2868 39.6028 75.5335 39.5502 75.756 39.4402C75.9786 39.3301 76.1699 39.1662 76.3124 38.9635C76.6661 38.3499 76.8523 37.6545 76.8523 36.9469C76.8523 36.2392 76.6661 35.5439 76.3124 34.9303C76.1821 34.6952 75.9883 34.5012 75.753 34.3704C75.5176 34.2395 75.2501 34.1772 74.981 34.1903C74.7118 34.2034 74.4517 34.2915 74.2302 34.4445C74.0088 34.5976 73.8349 34.8095 73.7282 35.0561C73.5073 35.6517 73.3408 36.266 73.2307 36.8914V36.8988Z" fill="#908B9E"/>
<path d="M129.637 38.549C130.379 39.696 131.553 40.029 133.179 39.659C133.557 39.5791 133.924 39.4523 134.27 39.2816C134.872 38.9708 135.221 39.215 135.503 39.7182C135.636 39.9501 135.717 40.2077 135.741 40.4735C135.765 40.7394 135.732 41.0073 135.643 41.2591C135.554 41.511 135.412 41.7409 135.227 41.9334C135.041 42.1259 134.816 42.2764 134.567 42.3749C133.664 42.8403 132.658 43.0718 131.642 43.048C130.625 43.0243 129.631 42.746 128.751 42.2388C127.871 41.7317 127.133 41.012 126.605 40.1461C126.077 39.2801 125.777 38.2957 125.731 37.2835C125.642 35.5001 125.909 33.7906 127.268 32.4659C127.985 31.7217 128.909 31.208 129.921 30.9904C130.933 30.7729 131.987 30.8615 132.949 31.2449C133.881 31.527 134.696 32.1015 135.274 32.8829C135.852 33.6642 136.162 34.6107 136.156 35.5815C136.231 36.7803 135.793 37.4315 134.604 37.6609C133.171 37.9273 131.738 38.142 130.305 38.401C130.104 38.4158 129.911 38.4824 129.637 38.549ZM132.525 35.0931C131.931 34.0274 131.3 33.7536 130.439 34.0792C130.097 34.1637 129.801 34.3764 129.613 34.6728C129.425 34.9692 129.359 35.3265 129.429 35.6703L132.525 35.0931Z" fill="#908B9E"/>
<path d="M97.1936 38.5268C97.3232 38.8859 97.5663 39.1934 97.8864 39.4029C98.2064 39.6125 98.5862 39.7127 98.9684 39.6886C99.9083 39.6815 100.842 39.5343 101.738 39.252C101.86 39.1841 101.996 39.1441 102.135 39.1352C102.274 39.1262 102.414 39.1485 102.543 39.2003C102.673 39.2521 102.789 39.3321 102.884 39.4346C102.978 39.537 103.049 39.6592 103.09 39.7922C103.311 40.2139 103.358 40.7057 103.219 41.1612C103.08 41.6168 102.767 41.9995 102.347 42.2269C101.456 42.7405 100.447 43.0173 99.4177 43.0307C98.3883 43.044 97.3727 42.7935 96.4684 42.3031C95.5641 41.8128 94.8014 41.099 94.2535 40.2304C93.7056 39.3618 93.391 38.3675 93.3396 37.3428C93.2924 36.3168 93.423 35.2904 93.7258 34.3086C94.0221 33.3332 94.6253 32.4786 95.4463 31.8709C96.2673 31.2633 97.2626 30.9349 98.2852 30.9341C100.305 30.8231 102.109 31.4669 103.075 33.354C103.47 34.2906 103.67 35.2979 103.661 36.3141C103.706 37.1873 102.919 37.5352 102.176 37.6684C100.691 37.92 99.206 38.142 97.7803 38.4084C97.5649 38.4084 97.3941 38.4676 97.1936 38.5268ZM100.015 35.1449C99.5922 34.1236 99.0649 33.835 98.2184 34.0052C98.0301 34.0311 97.8491 34.0947 97.6863 34.1923C97.5235 34.2899 97.3823 34.4194 97.2712 34.573C97.1601 34.7266 97.0815 34.9011 97.04 35.0859C96.9986 35.2707 96.9953 35.462 97.0303 35.6481L100.015 35.1449Z" fill="#908B9E"/>
<path d="M148.186 38.4158C148.186 39.5111 148.186 40.6359 148.186 41.6867C148.186 42.3157 147.919 42.6192 147.288 42.6266H146.218C144.874 42.6266 144.406 42.1455 144.399 40.8061C144.399 39.0966 144.399 37.3872 144.399 35.6777C144.399 34.4123 143.604 33.9017 142.379 34.2569C141.77 34.4345 141.637 34.8193 141.637 35.3817C141.637 37.4168 141.637 39.4444 141.637 41.4795C141.637 42.3305 141.317 42.671 140.493 42.6266C140.166 42.6266 139.84 42.6266 139.513 42.6266C139.319 42.647 139.124 42.6275 138.938 42.5694C138.753 42.5113 138.581 42.4158 138.434 42.2888C138.287 42.1617 138.168 42.006 138.084 41.8311C138 41.6563 137.953 41.466 137.946 41.2723C137.849 40.3399 137.85 39.3926 137.835 38.4528C137.835 37.0986 137.835 35.7443 137.835 34.3901C137.799 33.8248 137.944 33.2628 138.25 32.7852C138.556 32.3077 139.006 31.9393 139.535 31.7334C141.197 30.9061 143.101 30.6962 144.904 31.1413C145.861 31.3333 146.716 31.8607 147.316 32.6279C147.915 33.3952 148.219 34.3512 148.171 35.3225C148.216 36.3585 148.186 37.3872 148.186 38.4158Z" fill="#908B9E"/>
<path d="M166.751 36.6027C166.751 37.698 166.751 38.7858 166.751 39.8736C166.793 40.2911 166.708 40.7115 166.508 41.0808C166.308 41.4501 166.002 41.7513 165.629 41.9457C164.576 42.5331 163.397 42.8611 162.19 42.9022C160.984 42.9434 159.785 42.6967 158.694 42.1825C158.026 41.8736 157.465 41.3738 157.083 40.7465C156.701 40.1193 156.514 39.393 156.548 38.66C156.481 36.5139 156.548 34.3604 156.548 32.207C156.548 31.5484 156.867 31.3041 157.453 31.2671C157.751 31.2671 158.048 31.2671 158.345 31.2671C159.711 31.2671 160.298 31.8295 160.327 33.1986C160.327 34.8488 160.327 36.5065 160.327 38.1568C160.327 38.9708 160.654 39.511 161.545 39.5924C162.733 39.7108 162.956 39.5184 162.956 38.3196C162.956 36.3733 162.993 34.427 162.956 32.4808C162.956 31.5853 163.32 31.2449 164.159 31.2671H164.901C166.208 31.2671 166.78 31.8518 166.795 33.1764C166.765 34.3012 166.751 35.4557 166.751 36.6027Z" fill="#908B9E"/>
<path d="M173.567 30.8157C174.393 30.9751 175.208 31.1802 176.01 31.43C176.398 31.5523 176.733 31.8015 176.961 32.1373C177.189 32.4732 177.296 32.8758 177.265 33.28C177.265 34.3901 176.783 34.6713 175.713 34.4271C174.852 34.2559 173.978 34.1618 173.1 34.1459C172.914 34.1459 172.713 34.4345 172.52 34.5825C172.691 34.7675 172.832 35.0339 173.048 35.1079C173.79 35.3817 174.592 35.5371 175.335 35.8479C177.095 36.5287 177.911 37.7646 177.785 39.4296C177.717 40.2447 177.38 41.0143 176.826 41.6181C176.273 42.222 175.534 42.626 174.726 42.7672C173.332 43.095 171.876 43.0464 170.508 42.6266C169.067 42.1751 168.414 40.9763 168.889 39.77C169.149 39.1188 169.476 38.9116 170.248 39.2076C171.165 39.5133 172.119 39.6974 173.085 39.7553C173.352 39.7553 173.657 39.3852 173.939 39.1854C173.724 38.9482 173.474 38.7459 173.196 38.586C172.498 38.3344 171.748 38.2382 171.065 37.9718C170.361 37.7635 169.747 37.3274 169.319 36.7324C168.891 36.1374 168.675 35.4174 168.704 34.6861C168.697 33.9233 168.946 33.1802 169.409 32.5734C169.873 31.9666 170.526 31.5306 171.265 31.3338C172.023 31.1217 172.792 30.9488 173.567 30.8157Z" fill="#908B9E"/>
<path d="M87.1021 38.734C87.5476 36.6397 88.0006 34.5454 88.4238 32.4438C88.6466 31.3855 89.456 30.8971 90.763 31.0895C91.0043 31.0948 91.241 31.1564 91.4541 31.2693C91.6673 31.3822 91.8509 31.5434 91.9903 31.7398C92.1296 31.9363 92.2208 32.1625 92.2566 32.4004C92.2923 32.6383 92.2716 32.8813 92.1961 33.1098C91.7209 35.019 91.1417 36.9135 90.5624 38.7932C90.3025 39.6368 89.9015 40.436 89.6268 41.2797C89.5045 41.6794 89.2653 42.0337 88.94 42.2973C88.6146 42.561 88.2177 42.722 87.8001 42.7597C85.8471 43.1223 84.7407 42.5377 84.0872 40.6506C83.2333 38.0457 82.4684 35.4113 81.6293 32.8064C81.3545 31.9405 81.7333 31.5335 82.4684 31.2523C82.7589 31.1026 83.0811 31.0243 83.4081 31.024C83.7352 31.0238 84.0575 31.1015 84.3483 31.2507C84.639 31.3999 84.8897 31.6163 85.0794 31.8818C85.2691 32.1473 85.3923 32.4542 85.4387 32.7768C85.862 34.4936 86.2555 36.2179 86.6639 37.957C86.7308 38.2308 86.8199 38.4972 86.8941 38.771L87.1021 38.734Z" fill="#908B9E"/>
<path d="M65.2258 42.9743C62.1887 42.8115 60.0278 41.1539 59.4412 38.3936C58.7877 35.3891 59.9833 32.5326 62.4115 31.4743C63.105 31.1272 63.864 30.9293 64.6393 30.8936C65.4146 30.8579 66.1888 30.9851 66.9115 31.2671C67.3987 31.4267 67.8037 31.7703 68.0396 32.224C68.2756 32.6778 68.3238 33.2057 68.1738 33.6944C67.9659 34.4936 67.6095 34.7082 66.8223 34.4344C66.3244 34.1917 65.7606 34.1174 65.2165 34.2229C64.6724 34.3284 64.1777 34.6079 63.8075 35.019C63.4344 35.5175 63.2123 36.1121 63.1676 36.7324C63.1228 37.3527 63.2573 37.9728 63.555 38.5194C63.872 38.9862 64.3367 39.3339 64.8751 39.5069C65.4134 39.68 65.9944 39.6684 66.5253 39.474C67.2308 39.2594 67.8248 39.0152 68.2184 39.9032C68.4347 40.3141 68.4867 40.7914 68.3641 41.239C68.2414 41.6866 67.9533 42.0713 67.5575 42.3157C66.8002 42.6 66.0202 42.8203 65.2258 42.9743Z" fill="#908B9E"/>
<path d="M105.421 37.3945C105.421 36.2993 105.421 35.2114 105.421 34.1236C105.373 33.6906 105.465 33.2534 105.684 32.8764C105.903 32.4994 106.238 32.2025 106.639 32.0294C107.91 31.4917 109.25 31.1306 110.619 30.9563C112.194 30.8157 112.958 31.8073 112.758 33.2726C112.754 33.5088 112.657 33.7339 112.487 33.8988C112.317 34.0637 112.089 34.1552 111.852 34.1532C109.208 34.4788 109.208 34.501 109.208 37.1133C109.208 38.5934 109.208 40.1178 109.208 41.6201C109.208 42.3601 108.911 42.6487 108.213 42.6339H108.035C105.807 42.7079 105.414 42.2935 105.414 40.1252L105.421 37.3945Z" fill="#908B9E"/>
<path d="M150.466 36.5731C150.466 35.1375 150.466 33.6944 150.466 32.2514C150.442 32.1281 150.446 32.001 150.479 31.8797C150.512 31.7585 150.573 31.6464 150.656 31.5521C150.739 31.4577 150.843 31.3837 150.959 31.3355C151.076 31.2874 151.202 31.2666 151.327 31.2745C151.74 31.2524 152.154 31.2524 152.567 31.2745C153.562 31.3337 154.179 31.8073 154.201 32.799C154.275 35.8257 154.26 38.8524 154.253 41.8791C154.253 42.0789 154.075 42.4489 153.963 42.4489C153.072 42.5747 152.167 42.5747 151.275 42.4489C150.533 42.2787 150.466 41.4499 150.473 40.7469L150.466 36.5731Z" fill="#908B9E"/>
<path d="M152.345 30.4235C152.069 30.4342 151.795 30.3875 151.539 30.2863C151.283 30.1851 151.051 30.0317 150.858 29.8359C150.665 29.64 150.515 29.4062 150.418 29.1492C150.321 28.8923 150.279 28.618 150.295 28.344C150.27 28.06 150.305 27.7739 150.398 27.5042C150.491 27.2345 150.639 26.9871 150.834 26.778C151.028 26.5689 151.264 26.4026 151.527 26.29C151.79 26.1773 152.073 26.1208 152.359 26.1239C152.914 26.1544 153.435 26.3969 153.814 26.8009C154.193 27.2049 154.401 27.7392 154.394 28.2922C154.412 28.5691 154.371 28.8466 154.276 29.1072C154.18 29.3677 154.031 29.6057 153.839 29.806C153.646 30.0063 153.414 30.1646 153.157 30.2709C152.899 30.3772 152.623 30.4291 152.345 30.4235Z" fill="#908B9E"/>
<path d="M59.6417 14.5943C58.4533 12.6215 56.9307 10.8688 55.1417 9.41416C54.3991 8.81474 53.6565 8.23008 52.914 7.66766L52.6095 7.7047C47.15 8.91576 41.9697 11.1455 37.3422 14.2761L37.0377 14.4685C37.2386 14.415 37.4495 14.4106 37.6525 14.4557C37.8555 14.5008 38.0445 14.5941 38.2036 14.7275L38.263 14.7868C40.5798 17.436 42.9486 20.0335 45.2283 22.705C46.461 24.185 47.6417 25.6651 49.3645 26.5383C50.6027 27.2631 52.0126 27.6452 53.4486 27.6452C54.8846 27.6452 56.2946 27.2631 57.5328 26.5383C58.6984 25.8989 59.6627 24.9493 60.3184 23.7955C60.974 22.6416 61.295 21.329 61.2456 20.0039C61.2308 18.0865 60.675 16.2119 59.6417 14.5943Z" fill="#645F71"/>
</g>
<defs>
<clipPath id="clip0_523_3824">
<rect width="177" height="46" fill="white" transform="translate(0.800049 0.659668)"/>
</clipPath>
</defs>
</svg>
