<svg width="81" height="42" viewBox="0 0 81 42" fill="none" xmlns="http://www.w3.org/2000/svg">
<g clip-path="url(#clip0_548_2830)">
<path d="M20.3568 10.4106C20.402 12.6581 19.8671 14.7402 18.4472 16.5363C17.6899 17.5327 16.7368 18.3673 15.6452 18.9899C14.5537 19.6126 13.3461 20.0104 12.0952 20.1596C9.12371 20.5487 6.43148 19.9397 4.09323 18.0191C2.19746 16.4624 1.02932 14.5009 0.720565 12.0666C0.427546 9.76068 0.58094 7.49956 1.63109 5.38048C3.06275 2.48888 5.3951 0.776494 8.62617 0.303642C11.6075 -0.132239 14.3391 0.428179 16.6989 2.35851C18.7029 3.9989 19.9497 6.07127 20.2624 8.65347C20.2997 8.95314 20.3371 9.25281 20.3548 9.55442C20.3725 9.85604 20.3568 10.1226 20.3568 10.4106ZM14.4787 14.7655H14.4138C14.4354 14.4292 14.4354 14.0919 14.4138 13.7556C14.1179 11.4245 13.4612 9.15238 12.4669 7.01892C11.7884 5.56728 11.0451 4.15067 9.79825 3.0707C8.59471 2.0277 6.92312 2.40909 6.40395 3.87241C6.25742 4.3011 6.17655 4.74908 6.16403 5.20146C6.0716 8.09111 6.79923 10.8173 7.9595 13.4384C8.59471 14.8765 9.3774 16.2288 10.5829 17.2971C10.8901 17.5899 11.2723 17.794 11.6883 17.8873C12.1042 17.9806 12.5381 17.9596 12.9428 17.8264C13.8081 17.5715 14.1955 16.9021 14.3194 16.0751C14.3902 15.6315 14.4276 15.1975 14.4787 14.7655Z" fill="#908B9E"/>
<path d="M78.5357 35.7345C78.6923 36.0088 78.8334 36.2914 78.9585 36.581C79.4226 37.8906 79.873 39.2041 80.3351 40.5175C80.4925 40.9787 80.4158 41.1013 79.9221 41.1013C78.7107 41.1013 77.5013 41.1013 76.2919 41.1013C75.7334 41.1013 75.1749 41.1461 74.6164 41.15C74.3587 41.15 74.1011 41.1033 73.7255 41.0663C74.0598 40.6771 74.3017 40.3755 74.5475 40.0933L71.8632 37.9528C71.4698 38.5814 71.4698 38.7935 71.8927 39.3889C72.0962 39.6554 72.2659 39.9455 72.3981 40.2529C72.5947 40.7627 72.3214 41.111 71.7707 41.111C69.8618 41.111 67.953 41.111 66.0441 41.111C65.5033 41.111 65.2575 40.8036 65.4207 40.2938C65.4939 40.0162 65.6142 39.753 65.7766 39.5154C66.1811 38.9677 66.3887 38.3019 66.3666 37.624C66.3666 34.2848 66.3843 30.9476 66.3902 27.6085C66.3902 26.9138 66.2958 26.8301 65.6036 26.8301H64.7343C64.6775 26.8144 64.6222 26.7936 64.5692 26.7678C64.8051 26.4487 65.0333 26.1452 65.2555 25.8396C66.3161 24.3815 67.3741 22.9221 68.4295 21.4614C68.6734 21.1247 68.8228 21.2765 69.0018 21.5256C69.989 22.9344 70.9789 24.3413 71.9713 25.7462C72.2034 26.0751 72.4374 26.402 72.7579 26.8398C72.3825 26.8145 72.0056 26.8203 71.6311 26.8573C71.4462 26.8904 71.1473 27.0909 71.1434 27.2232C71.106 28.4121 71.1218 29.603 71.1218 30.8211C71.9084 30.4436 72.6537 30.0934 73.3892 29.7275C73.635 29.605 73.7019 29.4123 73.5682 29.1438C73.2476 28.5016 72.9526 27.8459 72.5849 27.0695L80.2447 28.6709L77.1355 34.6798H76.992C76.8425 34.2518 76.6812 33.8276 76.5495 33.3956C76.4177 32.9636 76.1739 32.9285 75.8278 33.1504C75.757 33.1951 75.6803 33.234 75.6114 33.2808C74.4472 34.0591 74.4315 33.8451 75.344 34.9834C75.7857 35.4963 76.2669 35.9745 76.7835 36.4136C77.4128 36.9838 77.5505 36.9604 78.0795 36.3144C78.1994 36.1607 78.3155 36.0031 78.5357 35.7345Z" fill="#908B9E"/>
<path d="M43.4856 19.821C43.4856 20.794 43.4502 21.7494 43.5072 22.7009C43.5249 23.0045 43.7747 23.3042 43.9497 23.5883C44.1247 23.8724 44.3705 24.1175 44.5397 24.4094C44.8917 25.0224 44.6282 25.4933 43.9241 25.4972C41.8789 25.5115 39.8343 25.5115 37.7904 25.4972C37.0982 25.4972 36.8464 25.0905 37.1159 24.462C37.1675 24.3225 37.2398 24.1913 37.3302 24.0728C38.0067 23.2944 38.1719 22.4013 38.1601 21.403C38.1247 18.5367 38.1365 15.6704 38.1601 12.8041C38.1809 12.4765 38.1237 12.1487 37.9933 11.8469C37.8628 11.5451 37.6626 11.2778 37.4089 11.0664C37.3322 11.0022 37.2614 10.9283 37.1906 10.8563C36.5043 10.1674 36.5849 9.59143 37.4659 9.14777C38.7501 8.50173 40.046 7.88099 41.3381 7.25247C41.4595 7.19306 41.5875 7.14799 41.7196 7.1182C42.2978 6.98393 42.5947 7.19604 42.6616 7.77981C42.6754 7.89072 42.6812 7.99969 42.6911 8.12812C46.4276 5.64516 51.2162 7.64359 52.0736 12.0588C52.4669 14.0709 52.1896 16.0168 50.9231 17.7253C49.2889 19.93 46.4 20.9029 43.7294 19.8658C43.6496 19.8439 43.568 19.8289 43.4856 19.821ZM43.4659 12.8528C43.4659 13.3412 43.4659 13.8257 43.4659 14.32C43.4659 14.8142 43.4541 15.3318 43.4856 15.8378C43.5138 16.7167 43.81 17.5666 44.3351 18.276C44.9959 19.1399 46.1601 19.0115 46.5849 18.0211C46.7265 17.7141 46.8118 17.3846 46.8366 17.0481C46.9054 15.1295 46.9172 13.203 46.4177 11.3311C46.1651 10.5006 45.8359 9.6949 45.4344 8.92399C45.3434 8.74886 45.1966 8.60823 45.0168 8.52383C44.837 8.43943 44.634 8.41594 44.4394 8.45697C44.2341 8.47905 44.0412 8.56527 43.8888 8.70313C43.7364 8.84099 43.6324 9.02332 43.5918 9.22366C43.5295 9.43191 43.4932 9.6469 43.4836 9.86385C43.46 10.8621 43.4659 11.8565 43.4659 12.8528Z" fill="#908B9E"/>
<path d="M27.6212 19.8132C27.6212 20.7745 27.5858 21.6852 27.6409 22.5881C27.6625 22.915 27.8828 23.2399 28.0539 23.5415C28.2033 23.8042 28.4649 24.0105 28.5809 24.281C28.697 24.5515 28.8248 24.9368 28.7107 25.1489C28.5967 25.361 28.1896 25.4836 27.9084 25.4874C25.9418 25.5147 23.989 25.5069 22.0283 25.5011C21.1965 25.5011 20.9211 25.0399 21.3144 24.3141C21.4283 24.1086 21.5599 23.9133 21.7078 23.7303C22.0938 23.2333 22.2934 22.6191 22.2722 21.9926C22.2722 18.8792 22.2722 15.7852 22.2722 12.6815C22.2856 12.3885 22.2319 12.0963 22.1151 11.8267C21.9983 11.5572 21.8214 11.3172 21.5976 11.1248C21.4594 11.0023 21.3281 10.8724 21.2043 10.7356C20.6969 10.1849 20.7382 9.62451 21.401 9.28203C22.7992 8.55816 24.2132 7.86542 25.6468 7.21549C26.4334 6.85745 26.75 7.12598 26.8267 7.99385C27.4678 7.72531 28.1109 7.30306 28.809 7.18436C32.9742 6.46827 36.1188 9.18279 36.3154 12.8878C36.4118 14.6644 36.1188 16.3301 35.0077 17.7934C33.3479 19.9689 30.457 20.8776 27.8749 19.8813C27.7918 19.8537 27.7071 19.831 27.6212 19.8132ZM27.6212 12.9092C27.6212 13.921 27.5976 14.9329 27.6212 15.9448C27.6404 16.7918 27.9341 17.6104 28.459 18.2798C29.1316 19.1477 30.2781 19.0135 30.695 18.0055C30.8622 17.6378 30.9538 17.241 30.9644 16.8379C30.9349 15.3921 30.9644 13.9327 30.7441 12.5103C30.577 11.3836 30.1542 10.2803 29.7412 9.20225C29.4934 8.56789 28.9546 8.35774 28.4964 8.46087C27.9379 8.5854 27.637 8.97069 27.6173 9.71402C27.5996 10.7862 27.6212 11.8487 27.6212 12.9092Z" fill="#908B9E"/>
<path d="M45.6213 29.3734C47.3361 26.9702 51.3932 27.1823 53.1768 29.2819C53.9497 30.1926 54.286 31.2784 54.4079 32.4226C54.5888 34.1097 54.6714 35.8046 54.8484 37.4916C54.8937 37.9256 55.1336 38.342 55.2968 38.7623C55.3689 38.9146 55.4496 39.0627 55.5387 39.206C56.0815 40.214 55.8396 40.6265 54.7049 40.6265C52.935 40.6265 51.165 40.6265 49.3951 40.6265C48.5121 40.6265 48.2998 40.2743 48.6813 39.4803C48.7503 39.3267 48.8353 39.1806 48.9349 39.0445C49.4679 38.3576 49.5426 37.5928 49.464 36.7522C49.3322 35.3628 49.3066 33.9618 49.1945 32.5705C49.1379 31.8704 49.0307 31.1753 48.874 30.4903C48.8329 30.2365 48.7027 30.0051 48.5064 29.8368C48.31 29.6685 48.06 29.574 47.8002 29.5699C47.3086 29.5446 46.8543 29.854 46.6655 30.4203C46.5388 30.7839 46.4685 31.1644 46.4571 31.5489C46.4354 33.4208 46.4571 35.2908 46.4374 37.1628C46.4289 37.8219 46.6654 38.4611 47.1021 38.9588C47.2768 39.1642 47.4291 39.3873 47.5564 39.6243C47.8691 40.2315 47.6449 40.6168 46.9664 40.6207C44.8373 40.6349 42.7075 40.6349 40.577 40.6207C39.9163 40.6207 39.6744 40.1887 39.9871 39.5952C40.1551 39.3012 40.3528 39.0248 40.577 38.7701C40.9455 38.3228 41.1389 37.7591 41.1218 37.1822C41.1218 35.8668 41.1218 34.5514 41.1218 33.236C41.1382 32.9751 41.0936 32.7139 40.9912 32.4729C40.8889 32.2319 40.7317 32.0176 40.5318 31.8466C40.3027 31.6449 40.0854 31.4305 39.8809 31.2045C39.4482 30.7491 39.4679 30.3152 40.0205 29.998C40.8071 29.5446 41.6351 29.1574 42.4512 28.7526C43.1493 28.4063 43.8455 28.0579 44.5554 27.7427C45.169 27.4722 45.582 27.7427 45.6331 28.4082C45.639 28.6904 45.6213 28.9764 45.6213 29.3734Z" fill="#908B9E"/>
<path d="M33.3204 39.4765C31.7923 41.3134 28.0539 41.3484 26.166 39.601C25.6965 39.1833 25.3202 38.6734 25.0608 38.1039C24.8015 37.5344 24.6648 36.9176 24.6596 36.293C24.6321 34.8608 24.638 33.4267 24.6596 31.9925C24.6947 31.2987 24.4747 30.6157 24.0401 30.07C23.8833 29.8716 23.7475 29.6577 23.635 29.4317C23.3813 28.9394 23.6035 28.4413 24.1502 28.3615C25.5072 28.1669 26.87 27.9996 28.2309 27.8283C28.5655 27.7725 28.9043 27.7445 29.2437 27.7446C29.9103 27.7719 30.0873 27.9684 30.0794 28.6145C30.046 31.3387 29.9969 34.063 29.9792 36.8028C29.9892 37.2547 30.0586 37.7035 30.1856 38.1377C30.246 38.36 30.3763 38.5575 30.5577 38.7017C30.739 38.8458 30.9621 38.9291 31.1945 38.9394C31.4099 38.9648 31.6277 38.9191 31.8141 38.8093C32.0005 38.6995 32.1449 38.5318 32.225 38.3323C32.4452 37.8999 32.5788 37.4294 32.6183 36.9468C32.6616 35.2111 32.6183 33.4734 32.6458 31.7376C32.6482 31.1309 32.4477 30.5405 32.0755 30.0583C31.8657 29.7804 31.7085 29.4673 31.6114 29.134C31.5091 28.702 31.7707 28.416 32.2014 28.3557C33.2909 28.2039 34.3823 28.0716 35.4738 27.9315C35.9792 27.8672 36.4806 27.7719 36.988 27.7369C37.7746 27.6902 38.0382 27.9587 38.0382 28.7332C38.0382 31.652 38.0382 34.5708 38.0382 37.4897C38.0269 37.8411 38.07 38.1922 38.166 38.5307C38.2328 38.7409 38.4846 38.8888 38.6301 39.0814C38.7756 39.2741 39.0431 39.5309 39.0391 39.7528C39.0229 39.8856 38.974 40.0124 38.8969 40.1223C38.8198 40.2322 38.7167 40.3218 38.5967 40.3832C37.9532 40.5854 37.289 40.716 36.6163 40.7724C35.9717 40.8038 35.3255 40.766 34.6891 40.6596C34.3646 40.6286 34.058 40.4979 33.8125 40.2857C33.567 40.0735 33.3949 39.7905 33.3204 39.4765Z" fill="#908B9E"/>
<path d="M60.4728 7.02673C63.0155 7.02673 65.165 7.93547 66.6871 9.94558C68.8975 12.8644 68.1247 16.8146 65.0903 18.8967C61.985 21.0197 57.1335 20.7492 54.4177 17.6727C53.4836 16.6141 53.0549 15.3629 52.9624 13.9463C52.7048 10.0545 56.1306 7.57353 58.9034 7.1863C59.4246 7.11041 59.9496 7.07733 60.4728 7.02673ZM62.3607 15.9389C62.2387 15.0107 62.1876 13.8588 61.9162 12.7593C61.6055 11.5957 61.1983 10.4593 60.6989 9.36181C60.6039 9.16879 60.4702 8.99694 60.3059 8.85676C60.1416 8.71658 59.9501 8.611 59.7432 8.54648C58.809 8.32659 58.5298 8.92009 58.4118 9.83466C58.1581 11.7961 58.4393 13.7264 58.9487 15.6179C59.2142 16.6025 59.5229 17.5949 60.2309 18.3869C60.5416 18.7332 60.931 18.9356 61.4108 18.7916C61.8906 18.6476 62.103 18.2604 62.1679 17.805C62.2486 17.2583 62.2859 16.7056 62.3607 15.9389Z" fill="#908B9E"/>
<path d="M14.1129 29.8696H13.4423C12.8307 29.8696 12.6714 29.7023 12.6557 29.0913C12.6557 28.9745 12.6557 28.8558 12.6557 28.739C12.6695 28.0346 12.754 27.9607 13.4541 27.9412C14.4079 27.9237 15.2968 27.7252 16.0677 27.1142C16.6488 26.6425 17.069 26.0052 17.2712 25.289C17.5013 24.5612 17.5741 24.5106 18.3469 24.5106H18.7049C19.3558 24.5106 19.6036 24.7344 19.6193 25.3765C19.6351 26.0518 19.6429 26.727 19.6193 27.4003C19.6016 27.805 19.7117 27.984 20.1542 27.9529C20.7993 27.9198 21.4482 27.9529 22.0952 27.9529C22.5711 27.9432 22.7796 28.1942 22.8091 28.6262C22.8305 28.8608 22.8252 29.0971 22.7934 29.3306C22.7344 29.6809 22.5436 29.9027 22.1385 29.8949C21.4915 29.8813 20.8425 29.9183 20.1955 29.8813C19.7471 29.8579 19.6055 29.9961 19.6173 30.4456C19.6409 32.1463 19.6174 33.849 19.6272 35.5516C19.6272 36.1101 19.58 36.7075 20.2447 36.9682C20.9409 37.2387 21.5367 36.9799 22.0697 36.5362C22.225 36.4059 22.3391 36.2054 22.5141 36.1257C22.7127 36.0182 22.9438 35.985 23.165 36.0323C23.3007 36.0848 23.4148 36.3689 23.4227 36.5538C23.5053 38.6709 21.7865 40.5643 19.6311 40.8347C18.4276 40.9846 17.2948 40.8834 16.2427 40.2626C15.6677 39.9429 15.1839 39.4844 14.8362 38.9298C14.4886 38.3752 14.2885 37.7426 14.2545 37.0908C14.1267 35.0107 14.1562 32.9208 14.1208 30.8367C14.109 30.5293 14.1129 30.2452 14.1129 29.8696Z" fill="#908B9E"/>
<path d="M6.35286 29.9416C6.77764 29.4454 7.19652 28.8071 7.75895 28.3382C8.52985 27.6921 9.52887 27.5131 10.5023 27.6552C12.0284 27.877 12.581 28.9278 12.6773 30.2335C12.7422 31.1227 12.6026 31.9965 11.9261 32.7145C11.3204 33.3586 9.23978 33.4578 8.73634 32.5822C8.59992 32.3364 8.48416 32.08 8.39022 31.8155C8.32729 31.6442 8.32533 31.4497 8.2624 31.2784C8.14047 30.9418 7.99494 30.5604 7.55837 30.5974C7.12179 30.6343 7.05689 31.0644 6.99003 31.3991C6.94927 31.7002 6.93808 32.0045 6.9566 32.3078C6.9566 33.7244 7.02739 35.1449 6.93299 36.5557C6.88009 37.0568 6.95087 37.5631 7.13926 38.0312C7.32766 38.4992 7.62803 38.9151 8.01461 39.243C8.208 39.4248 8.33988 39.6613 8.39219 39.9201C8.47479 40.4144 8.28993 40.5895 7.77075 40.5895C5.62326 40.5895 3.47577 40.5895 1.32827 40.5895H1.27715C0.793371 40.572 0.545579 40.286 0.706837 39.8267C0.852375 39.4529 1.04463 39.0986 1.27911 38.7721C1.59559 38.3336 1.76232 37.8066 1.75502 37.2679C1.73732 35.9525 1.70979 34.6351 1.76485 33.3216C1.79828 32.5432 1.5446 31.9245 0.944796 31.4691C0.0146095 30.7628 0.38432 30.0155 1.24764 29.6361C2.53575 29.0718 3.80419 28.4569 5.07459 27.8673C5.2137 27.8051 5.35616 27.7505 5.50133 27.7038C6.01657 27.5306 6.33516 27.7369 6.34892 28.274C6.36465 28.8791 6.35286 29.4824 6.35286 29.9416Z" fill="#908B9E"/>
<path d="M63.0116 32.9967C63.0116 34.3296 63.049 35.6625 62.9978 36.9935C62.963 37.7378 63.2234 38.4661 63.7235 39.0231C63.9118 39.2394 64.0669 39.482 64.1837 39.7431C64.3803 40.2179 64.1266 40.5876 63.6035 40.5895C61.4049 40.5895 59.2063 40.5895 57.0077 40.5895C56.5554 40.5895 56.3685 40.3385 56.4393 39.9494C56.4945 39.6375 56.6217 39.3425 56.811 39.0873C57.3088 38.4624 57.5535 37.6764 57.4974 36.8826C57.4521 35.7151 57.4639 34.5475 57.4974 33.3917C57.5131 32.7823 57.3112 32.187 56.927 31.7104C56.7777 31.5285 56.646 31.333 56.5337 31.1267C56.3371 30.7375 56.3548 30.3736 56.8149 30.1537C58.5042 29.3364 60.1876 28.4997 61.8887 27.7097C62.4983 27.4256 63.0057 27.8031 63.0096 28.488C63.0175 29.9941 63.0116 31.4964 63.0116 32.9967Z" fill="#908B9E"/>
<path d="M60.4708 26.6375C59.0451 26.618 57.989 26.1996 57.2929 25.1391C56.3961 23.777 56.9664 21.8973 58.4944 21.1617C59.0279 20.8967 59.6141 20.752 60.2108 20.7378C60.8076 20.7237 61.4001 20.8406 61.9458 21.08C62.519 21.3069 63.0019 21.7125 63.3213 22.2353C63.6406 22.7582 63.7791 23.3697 63.7157 23.9774C63.6056 25.1703 62.5967 26.2541 61.3558 26.5071C61.0097 26.5791 60.6478 26.6122 60.4708 26.6375Z" fill="#908B9E"/>
</g>
<defs>
<clipPath id="clip0_548_2830">
<rect width="80" height="41" fill="white" transform="translate(0.400024 0.159668)"/>
</clipPath>
</defs>
</svg>
