<svg width="224" height="48" viewBox="0 0 224 48" fill="none" xmlns="http://www.w3.org/2000/svg">
<g clip-path="url(#clip0_523_3826)">
<path d="M0.311071 32.147C0.27071 32.1484 0.230493 32.1417 0.192805 32.1272C0.155116 32.1127 0.120731 32.0908 0.0917036 32.0628C0.062676 32.0347 0.0395976 32.0012 0.0238437 31.964C0.00808986 31.9269 -1.3272e-05 31.887 9.93728e-06 31.8467V28.6958C-0.000266319 28.6217 0.0273665 28.5503 0.0774329 28.4956C0.127499 28.4409 0.196339 28.407 0.270282 28.4006C2.48346 28.2072 17.6391 26.5986 28.0778 17.431C28.0778 17.431 32.2849 31.0221 0.311071 32.147ZM33.5495 0.159668C33.5495 0.159668 24.2685 17.3445 0.229485 23.2289C0.16386 23.2439 0.105347 23.2809 0.0636212 23.3336C0.0218958 23.3864 -0.000541792 23.4518 9.93728e-06 23.519V26.5732C0.000236784 26.6164 0.0097879 26.659 0.0280145 26.6981C0.046241 26.7373 0.0727114 26.7721 0.105624 26.8001C0.138537 26.8281 0.177116 26.8487 0.218732 26.8605C0.260347 26.8723 0.304019 26.875 0.346771 26.8684C4.11019 26.2169 36.7367 19.9609 33.5495 0.159668ZM29.3628 36.1938C29.3635 36.3119 29.3408 36.4289 29.296 36.5382C29.2512 36.6475 29.1852 36.7469 29.1018 36.8306C29.0184 36.9143 28.9192 36.9808 28.81 37.0261C28.7008 37.0715 28.5836 37.0948 28.4653 37.0948H11.7747C19.271 36.9014 19.6228 30.9865 19.6228 30.9865C12.3969 33.5825 2.15709 33.8014 0.295773 33.8167C0.216865 33.818 0.141645 33.8502 0.086319 33.9064C0.0309932 33.9626 -1.39932e-06 34.0382 9.93728e-06 34.117V37.1101V37.7362C9.93728e-06 38.6893 0.379319 39.6034 1.05449 40.2773C1.72967 40.9513 2.6454 41.3299 3.60025 41.3299H29.9901C30.9454 41.3299 31.8617 40.9515 32.5376 40.2776C33.2136 39.6038 33.5941 38.6898 33.5954 37.7362V11.9284C33.5956 11.864 33.575 11.8012 33.5366 11.7493C33.4983 11.6975 33.4442 11.6593 33.3825 11.6405C33.3207 11.6217 33.2545 11.6232 33.1937 11.6448C33.1329 11.6664 33.0806 11.7069 33.0447 11.7604C32.0061 13.2863 30.8318 14.7157 29.5362 16.0312C29.4257 16.1422 29.3635 16.2921 29.3628 16.4486V36.1938ZM5.18619 12.0048H19.9135C20.0436 12.0052 20.1704 11.9641 20.2756 11.8877C21.8045 10.7741 23.2767 9.58484 24.6866 8.32449C24.727 8.28286 24.7545 8.23045 24.7657 8.17358C24.7769 8.11671 24.7714 8.05782 24.7499 8.00401C24.7283 7.95019 24.6916 7.90376 24.6442 7.8703C24.5968 7.83685 24.5407 7.8178 24.4826 7.81546H3.65634C2.70103 7.81681 1.78531 8.19657 1.11028 8.87133C0.435249 9.5461 0.0560959 10.4607 0.0560968 11.4143V21.1826C0.0557507 21.2278 0.0656596 21.2726 0.085074 21.3135C0.104488 21.3543 0.132909 21.3903 0.168216 21.4187C0.203523 21.4471 0.2448 21.4672 0.288965 21.4774C0.333129 21.4876 0.379037 21.4878 0.42326 21.4778C0.989303 21.3505 2.20299 21.0502 3.87052 20.5106C3.9911 20.4717 4.09613 20.3955 4.1704 20.293C4.24466 20.1905 4.28431 20.067 4.28358 19.9405V12.9057C4.28358 12.6668 4.37867 12.4376 4.54794 12.2687C4.71721 12.0997 4.9468 12.0048 5.18619 12.0048Z" fill="#645F71"/>
<path d="M43.9728 32.8699C42.7659 31.7907 41.9968 30.3076 41.8107 28.7009L45.008 27.8407C45.1805 28.9651 45.7286 29.9983 46.5634 30.7727C47.3722 31.4312 48.3723 31.8116 49.4151 31.8575C50.4578 31.9033 51.4876 31.6121 52.3513 31.0272C52.6895 30.7918 52.9655 30.4779 53.1556 30.1127C53.3457 29.7474 53.4441 29.3416 53.4426 28.93C53.4426 27.2909 52.2034 26.2576 50.3319 25.8758L47.7414 25.3668C46.2544 25.1179 44.8897 24.3903 43.8556 23.295C42.9334 22.3169 42.4286 21.0189 42.4481 19.6758C42.3614 16.2806 45.671 13.2926 49.3579 13.3537C52.2034 13.3792 54.1055 14.3718 55.1713 15.736C55.859 16.5314 56.3251 17.4934 56.5227 18.5254L53.463 19.4722C53.2386 18.6197 52.7559 17.857 52.081 17.2885C51.3585 16.6537 50.4221 16.3154 49.4599 16.3417C48.5285 16.3115 47.6193 16.6291 46.9102 17.2325C46.5794 17.4804 46.3109 17.8017 46.1259 18.1709C45.941 18.5402 45.8446 18.9474 45.8444 19.3602C45.8497 20.0145 46.1072 20.6416 46.5634 21.1113C47.0838 21.6431 47.7578 21.999 48.491 22.1294L51.1427 22.6384C54.8551 23.3867 56.8694 25.5704 56.8694 28.7009C56.8548 29.4895 56.6815 30.2672 56.3601 30.9877C56.0386 31.7082 55.5754 32.3569 54.9979 32.8953C53.5127 34.1929 51.5909 34.882 49.618 34.8245C47.2263 34.8245 45.2222 34.0457 43.9728 32.8699Z" fill="#645F71"/>
<path d="M62.5606 28.3853C62.6167 30.513 64.6922 32.1521 66.7626 32.1216C68.6086 32.1216 70.016 31.3428 70.5617 29.7088L73.244 30.5385C72.9597 31.4128 72.4801 32.2113 71.8414 32.8735C71.2027 33.5358 70.4216 34.0445 69.5571 34.3613C68.6725 34.6903 67.7371 34.8626 66.7932 34.8703C65.8094 34.8916 64.8314 34.7149 63.9176 34.3507C63.0037 33.9866 62.1727 33.4425 61.4741 32.7508C60.7754 32.0591 60.2235 31.2341 59.8512 30.3249C59.4789 29.4157 59.2939 28.441 59.3071 27.4589C59.2972 26.1641 59.6147 24.8878 60.2301 23.748C60.8272 22.627 61.7239 21.6931 62.8207 21.0502C63.9295 20.3762 65.2043 20.0237 66.5025 20.0321C68.6902 20.0321 70.3934 20.6939 71.6275 22.0682C72.8616 23.4426 73.499 25.1988 73.499 27.413C73.4973 27.7396 73.4786 28.0658 73.4429 28.3904L62.5606 28.3853ZM63.9987 23.6411C63.2969 24.2306 62.8449 25.0637 62.734 25.9725H70.2455C70.2338 25.5232 70.1279 25.0814 69.9347 24.6755C69.7415 24.2695 69.4652 23.9085 69.1236 23.6157C68.3881 23.0337 67.4714 22.7275 66.5331 22.7503C65.6107 22.7279 64.7122 23.045 64.0088 23.6411H63.9987Z" fill="#645F71"/>
<path d="M86.4363 26.6037C86.4363 24.4454 85.3705 23.0405 83.2695 23.0405C82.8197 23.0191 82.3707 23.0954 81.9534 23.2641C81.536 23.4329 81.1604 23.69 80.8524 24.0178C80.2271 24.7419 79.9072 25.6797 79.9599 26.6343V34.5904H76.7626V20.307H79.8988V22.2362C80.3144 21.6818 80.8339 21.2133 81.4286 20.8568C81.9023 20.5534 82.4176 20.3202 82.9584 20.1645C83.3947 20.0743 83.8388 20.0266 84.2843 20.022C86.0436 20.022 87.344 20.531 88.2874 21.6305C89.2325 22.809 89.7131 24.2917 89.6388 25.7994V34.5904H86.472L86.4363 26.6037Z" fill="#645F71"/>
<path d="M94.6108 22.3788C95.2686 21.631 96.08 21.0334 96.9899 20.6267C97.8998 20.22 98.8868 20.0137 99.8837 20.022C100.752 20.0442 101.605 20.2507 102.388 20.6277C103.264 20.9591 104.011 21.5621 104.519 22.3482V12.809H107.711V34.5904H104.575V32.3506C104.207 32.9472 103.704 33.4493 103.107 33.8166C102.537 34.1506 101.927 34.4106 101.291 34.5904C100.805 34.7315 100.303 34.8102 99.797 34.8245C98.5089 34.8295 97.2472 34.4599 96.1662 33.7607C95.0901 33.0893 94.2106 32.1464 93.6164 31.0272C93.0337 29.92 92.7259 28.6892 92.7189 27.4385C92.741 25.5836 93.41 23.7944 94.6108 22.3788ZM103.356 24.2164C102.96 23.7921 102.478 23.4573 101.941 23.2343C101.405 23.0114 100.827 22.9054 100.246 22.9234C99.6728 22.908 99.1032 23.0155 98.5754 23.2385C98.0476 23.4616 97.5738 23.795 97.1861 24.2164C96.3828 25.0951 95.9499 26.2492 95.9775 27.4385C95.9512 28.6169 96.3846 29.7594 97.1861 30.625C97.5732 31.0472 98.0468 31.3812 98.5748 31.6043C99.1028 31.8274 99.6727 31.9344 100.246 31.918C100.827 31.936 101.405 31.83 101.941 31.6071C102.478 31.3841 102.96 31.0493 103.356 30.625C104.149 29.7561 104.572 28.6132 104.534 27.4385C104.575 26.2527 104.152 25.0976 103.356 24.2164Z" fill="#645F71"/>
<path d="M131.781 34.5904V18.9021H131.725L125.162 34.5904H122.367L115.83 18.9581H115.748V34.5904H112.535V13.6235H116.997L123.795 29.831H123.821L130.486 13.6235H135.075V34.57L131.781 34.5904Z" fill="#645F71"/>
<path d="M142.174 28.3853C142.235 30.513 144.305 32.1521 146.381 32.1216C148.222 32.1216 149.634 31.3428 150.18 29.7088L152.857 30.5385C152.573 31.4128 152.093 32.2113 151.454 32.8735C150.816 33.5358 150.035 34.0445 149.17 34.3613C148.286 34.6903 147.35 34.8626 146.406 34.8703C145.423 34.8909 144.445 34.7137 143.531 34.3493C142.618 33.9849 141.787 33.4407 141.089 32.7492C140.39 32.0577 139.838 31.2329 139.466 30.3241C139.093 29.4152 138.908 28.4408 138.92 27.4589C138.91 26.1641 139.228 24.8878 139.843 23.748C140.44 22.627 141.337 21.6931 142.434 21.0502C143.544 20.3763 144.821 20.0238 146.121 20.0321C148.308 20.0321 150.006 20.6939 151.246 22.0682C152.533 23.5446 153.203 25.4579 153.117 27.413C153.114 27.7397 153.094 28.0659 153.056 28.3904L142.174 28.3853ZM143.617 23.6411C142.912 24.2288 142.458 25.0625 142.347 25.9725H149.864C149.85 25.5231 149.742 25.0816 149.548 24.6758C149.354 24.2701 149.078 23.9091 148.737 23.6157C148.001 23.0337 147.084 22.7275 146.146 22.7503C145.23 22.7305 144.339 23.0476 143.642 23.6411H143.617Z" fill="#645F71"/>
<path d="M164.198 23.5292C163.905 23.4684 163.606 23.4393 163.306 23.4426C160.889 23.4426 159.563 24.8526 159.563 27.3214V34.5904H156.391V20.307H159.527V22.5213C159.908 21.8162 160.474 21.2275 161.163 20.8178C161.853 20.4082 162.641 20.1929 163.444 20.195C163.703 20.199 163.962 20.2177 164.219 20.251L164.198 23.5292Z" fill="#645F71"/>
<path d="M165.264 27.408C165.253 26.1077 165.591 24.8282 166.243 23.7023C166.884 22.5735 167.82 21.6394 168.951 20.9994C170.107 20.3413 171.419 20.0039 172.75 20.022C174.311 19.972 175.843 20.4471 177.1 21.3709C178.22 22.1498 179.026 23.3009 179.374 24.6185L176.493 25.5704C176.287 24.9 175.909 24.2948 175.397 23.8143C174.661 23.1888 173.716 22.8619 172.75 22.898C172.194 22.8901 171.641 22.9952 171.127 23.2069C170.612 23.4187 170.146 23.7327 169.757 24.1299C169.351 24.5648 169.035 25.0757 168.827 25.6331C168.62 26.1905 168.525 26.7833 168.548 27.3775C168.509 28.58 168.93 29.7523 169.726 30.6556C170.115 31.0754 170.589 31.4078 171.117 31.6307C171.644 31.8536 172.213 31.962 172.786 31.9486C174.596 31.9486 175.845 31.0272 176.554 29.2202L179.466 30.167C179.091 31.4024 178.347 32.4944 177.335 33.2975C176.033 34.3315 174.408 34.8725 172.745 34.8246C171.761 34.8452 170.783 34.6678 169.87 34.303C168.956 33.9383 168.126 33.3935 167.427 32.7014C166.729 32.0093 166.178 31.1838 165.806 30.2744C165.435 29.365 165.25 28.3901 165.264 27.408Z" fill="#645F71"/>
<path d="M185.591 28.2988C185.591 30.452 186.611 31.862 188.727 31.862C189.177 31.8841 189.628 31.8082 190.046 31.6394C190.464 31.4707 190.841 31.2131 191.149 30.8846C191.768 30.1569 192.087 29.2217 192.042 28.2682V20.307H195.234V34.5904H192.128V32.6662C191.723 33.2191 191.214 33.6877 190.629 34.0457C190.161 34.3604 189.644 34.5944 189.099 34.738C188.665 34.8407 188.219 34.8885 187.773 34.8805C185.473 34.8805 183.775 33.7606 182.995 32.035C182.589 31.112 182.392 30.1108 182.419 29.103V20.307H185.616L185.591 28.2988Z" fill="#645F71"/>
<path d="M207.33 23.5292C207.036 23.4686 206.737 23.4396 206.437 23.4426C204.015 23.4426 202.694 24.8526 202.694 27.3214V34.5904H199.497V20.307H202.633V22.5213C203.014 21.8162 203.58 21.2275 204.269 20.8178C204.959 20.4082 205.747 20.1929 206.55 20.195C206.81 20.199 207.071 20.2177 207.33 20.251V23.5292Z" fill="#645F71"/>
<path d="M208.334 20.307H211.975L216.437 29.6782L220.553 20.307H224.005L214.178 41.6201H210.782L214.699 32.9666L208.334 20.307Z" fill="#645F71"/>
</g>
<defs>
<clipPath id="clip0_523_3826">
<rect width="224" height="47" fill="white" transform="translate(0 0.159668)"/>
</clipPath>
</defs>
</svg>
