<svg width="107" height="44" viewBox="0 0 107 44" fill="none" xmlns="http://www.w3.org/2000/svg">
<g clip-path="url(#clip0_523_3825)">
<path d="M25.7355 16.9588C26.0987 16.6399 26.4168 16.3374 26.7575 16.0649C28.0836 15.0353 29.6873 14.3958 31.3779 14.2226C33.036 14.0023 34.7248 14.1975 36.2827 14.7895C38.2458 15.5462 39.8849 16.9261 40.9313 18.703C41.9119 20.3397 42.4899 22.1731 42.6207 24.0609C42.8032 26.03 42.535 28.0138 41.8351 29.8712C40.9285 32.2612 39.3743 34.1417 37.0204 35.3217C35.7854 35.9395 34.4206 36.2752 33.0307 36.3028C31.5058 36.3887 29.9839 36.0911 28.613 35.4389C27.9578 35.0846 27.3318 34.6819 26.7406 34.2344C26.5112 34.0431 26.3019 33.8304 26.1156 33.5994L26.017 33.6348C26.017 33.7547 25.9973 33.8746 25.9973 33.9918C25.9973 36.877 25.9973 39.763 25.9973 42.65C25.9973 43.1596 25.9973 43.1596 25.4736 43.1596H20.4872C20.0395 43.1596 20.0198 43.1433 20.0198 42.7263V15.032C20.0198 14.6232 20.0451 14.5987 20.4562 14.5987C22.0639 14.5987 23.6744 14.5987 25.285 14.5987C25.6144 14.5987 25.7158 14.7159 25.7073 15.0211C25.6904 15.5662 25.7073 16.0867 25.7073 16.6209C25.7158 16.719 25.727 16.8362 25.7355 16.9588ZM25.9044 25.2709C26.0198 25.9086 26.0846 26.5627 26.2535 27.1786C26.8758 29.4597 28.9565 31.2311 31.7383 30.9368C32.4932 30.882 33.2249 30.6601 33.8772 30.2883C34.5294 29.9164 35.0846 29.4045 35.5 28.792C36.5896 27.2113 36.7952 25.4617 36.3785 23.6303C36.0982 22.2905 35.2904 21.1089 34.126 20.3354C33.0795 19.6489 31.8091 19.3579 30.5558 19.5178C29.378 19.631 28.2888 20.1737 27.5093 21.0358C26.3999 22.2431 25.9776 23.6793 25.9044 25.2845V25.2709Z" fill="#908B9E"/>
<path d="M88.342 23.4517L89.5181 22.0732C91.3977 19.8676 93.3106 17.6862 95.1346 15.4378C95.3497 15.141 95.6441 14.9057 95.9867 14.7568C96.3294 14.6079 96.7074 14.551 97.0809 14.5919C98.891 14.6508 100.695 14.6107 102.517 14.6107H102.995C102.91 14.7423 102.817 14.8692 102.717 14.9908C100.915 16.9233 99.1134 18.855 97.3117 20.7857C96.4776 21.6931 95.6434 22.6085 94.7898 23.5159C94.763 23.5375 94.7413 23.5645 94.7265 23.5951C94.7117 23.6256 94.704 23.6589 94.704 23.6926C94.704 23.7263 94.7117 23.7596 94.7265 23.7901C94.7413 23.8206 94.763 23.8476 94.7898 23.8692C96.3636 25.8607 98.3321 27.3168 100.848 28.0127C101.515 28.1726 102.194 28.2818 102.878 28.3392C102.987 28.3371 103.094 28.367 103.185 28.4248C103.276 28.4827 103.346 28.5658 103.387 28.6631C104.427 30.9079 105.471 33.1519 106.521 35.3949C106.668 35.7108 106.629 35.7643 106.242 35.8071C102.319 36.2568 98.8743 35.1058 95.7574 32.8869C92.7907 30.775 90.5274 28.0689 88.6478 25.0309C88.5485 24.8554 88.423 24.6949 88.2752 24.5545V34.9934C88.2752 35.5287 88.2752 35.5421 87.6941 35.5421H82.7783C82.3445 35.5421 82.3251 35.5234 82.3251 35.1112C82.3251 25.5787 82.3251 16.048 82.3251 6.51914C82.3251 6.0882 82.3418 6.07214 82.795 6.07214H87.7998C88.2502 6.07214 88.2641 6.08821 88.2641 6.52985V23.4222L88.342 23.4517Z" fill="#908B9E"/>
<path d="M60.3047 16.9861V15.3806C60.3047 15.2475 60.3047 15.1033 60.3047 14.9813C60.2793 14.704 60.409 14.5931 60.6996 14.5958C62.1101 14.5958 63.5205 14.5958 64.931 14.5958C65.2131 14.5958 65.5178 14.5958 65.8112 14.5958C66.034 14.5958 66.1525 14.6762 66.1412 14.9064C66.1412 14.9951 66.1412 15.0839 66.1412 15.1837V35.7314C66.1412 36.286 66.1412 36.286 65.5629 36.286H60.9253C60.3047 36.286 60.3047 36.286 60.3047 35.6593V33.8902C60.2439 33.9129 60.1861 33.9426 60.1326 33.9789C59.0047 35.2698 57.4602 36.141 55.7573 36.4468C52.9758 37.0375 50.3495 36.6604 47.9827 35.0326C46.4967 33.9886 45.3338 32.5604 44.6229 30.9064C43.7127 28.842 43.3394 26.5873 43.5369 24.3456C43.7203 21.7917 44.5073 19.4402 46.2027 17.4409C47.5877 15.7583 49.5553 14.6367 51.7289 14.2908C54.2396 13.8749 56.6036 14.2742 58.7362 15.6773C59.2831 16.0849 59.8067 16.5219 60.3047 16.9861ZM60.1946 25.4104C60.1636 25.0361 60.1467 24.6589 60.0931 24.2874C59.7066 21.6419 57.6219 19.3931 54.6317 19.5955C53.9133 19.6242 53.2097 19.805 52.569 20.1257C51.9283 20.4463 51.3656 20.8992 50.9193 21.4534C49.6922 22.9619 49.3593 24.7089 49.6584 26.5917C49.8211 27.8459 50.4189 29.0065 51.3509 29.8777C51.9026 30.3972 52.5659 30.7883 53.292 31.0221C54.0181 31.2558 54.7883 31.3262 55.5457 31.2281C56.199 31.1689 56.8329 30.9777 57.4076 30.6666C57.9823 30.3555 58.4855 29.9312 58.8857 29.4201C59.8307 28.2444 60.1608 26.8801 60.1946 25.4104Z" fill="#908B9E"/>
<path d="M2.60577 29.248C2.7785 29.3672 2.92424 29.4588 3.06189 29.5614C4.65609 30.7449 6.55404 31.4201 8.51912 31.5028C9.5307 31.5921 10.5484 31.4324 11.4879 31.0369C11.7902 30.8915 12.0645 30.6914 12.2976 30.4461C12.4822 30.254 12.5857 29.995 12.5857 29.725C12.5857 29.4551 12.4822 29.196 12.2976 29.0039C11.9625 28.6399 11.5324 28.3828 11.0588 28.2634C10.0332 27.9528 9.00222 27.6699 7.97663 27.3676C6.47873 26.9266 5.00782 26.4107 3.71233 25.49C2.99453 25.0111 2.40693 24.3527 2.0047 23.5765C1.60247 22.8002 1.39882 21.9317 1.41285 21.0524C1.38316 18.4759 2.57608 16.6676 4.67854 15.4306C6.5543 14.3213 8.59199 14.019 10.7349 14.1715C12.353 14.2575 13.9449 14.6271 15.4419 15.2642C16.0545 15.5416 16.6402 15.8688 17.2421 16.1684C17.281 16.1801 17.3166 16.2012 17.3459 16.2299C17.3753 16.2587 17.3975 16.2942 17.4107 16.3336C17.4239 16.373 17.4277 16.4151 17.4219 16.4563C17.416 16.4975 17.4006 16.5367 17.377 16.5705C16.8102 17.8491 16.2461 19.1332 15.6956 20.4201C15.5768 20.6974 15.4419 20.6697 15.2206 20.5588C13.4499 19.6408 11.49 19.1747 9.50693 19.1998C8.8187 19.2192 8.15746 19.3523 7.61768 19.8543C6.99693 20.4395 7.0509 21.241 7.8012 21.6376C8.40098 21.956 9.03508 22.2008 9.69045 22.367C11.2936 22.7775 12.913 23.1242 14.419 23.8481C15.925 24.5719 17.1746 25.4872 17.8736 27.0542C18.9289 29.4172 18.4134 32.6288 16.2246 34.4454C14.7946 35.5895 13.0878 36.3106 11.2882 36.5311C8.67181 36.9472 5.99465 36.633 3.5369 35.6214C2.54033 35.2178 1.61143 34.6563 0.783992 33.9573C0.619357 33.8186 0.546489 33.68 0.643651 33.4775C1.25361 32.1444 1.86087 30.8094 2.46543 29.4726C2.50609 29.3939 2.55303 29.3188 2.60577 29.248Z" fill="#908B9E"/>
<path d="M73.3732 18.2086C73.7373 17.6428 74.1306 17.0971 74.5516 16.5737C75.722 15.2944 77.3023 14.4792 79.0103 14.274C79.4532 14.2058 79.9042 14.1813 80.3525 14.1377C80.5914 14.1159 80.7068 14.2086 80.7068 14.4701C80.7068 16.343 80.7068 18.2158 80.7068 20.0887C80.7068 20.3802 80.5538 20.3993 80.3203 20.4293C79.4365 20.5003 78.558 20.6268 77.6896 20.808C75.6066 21.3312 74.302 22.7154 73.7839 24.8107C73.5753 25.6429 73.4636 26.4971 73.451 27.3557C73.4081 30.0424 73.4349 32.7317 73.4349 35.4211C73.4349 35.8952 73.4349 35.9034 72.9705 35.9034H68.1817C67.7844 35.9034 67.7603 35.8789 67.7603 35.4756V15.0396C67.7603 14.6173 67.779 14.6009 68.2005 14.6009H72.933C73.3517 14.6009 73.3705 14.62 73.3705 15.0423C73.3732 16.0887 73.3732 17.1432 73.3732 18.2086Z" fill="#908B9E"/>
<path d="M92.0695 31.0659C92.6398 31.5747 93.197 32.1018 93.7858 32.5869C96.0567 34.4593 98.5388 35.9698 101.42 36.7224C102.388 36.9842 103.39 37.1034 104.393 37.0765C104.507 37.0566 104.624 37.0566 104.739 37.0765C104.834 37.1106 104.903 37.2181 104.982 37.2915C104.9 37.3649 104.818 37.4987 104.734 37.5013C104.249 37.5245 103.763 37.5201 103.279 37.4882C100.049 37.2259 97.3321 35.7679 94.879 33.7827C93.9099 32.996 93.0544 32.0782 92.1487 31.218C92.1072 31.1738 92.0692 31.1265 92.0352 31.0764L92.0695 31.0659Z" fill="#908B9E"/>
<path d="M101.415 38.3222C100.513 38.0779 99.616 37.8775 98.7633 37.577C97.0733 36.954 95.5385 36.0407 94.2469 34.8895C93.8141 34.5165 93.3896 34.1362 92.9734 33.7485C92.9151 33.6671 92.8715 33.5781 92.8441 33.4847C92.9609 33.4986 93.0738 33.5318 93.1769 33.5824C94.0874 34.2836 94.9455 35.0483 95.9027 35.6933C97.5052 36.8256 99.4111 37.569 101.434 37.8506C101.547 37.8653 101.643 37.9997 101.745 38.0803L101.415 38.3222Z" fill="#908B9E"/>
<path d="M90.4172 25.4894C90.8707 25.3009 90.8845 25.2759 90.835 24.6576H92.7699C93.0448 24.6763 93.3208 24.6698 93.5945 24.6382C94.1442 24.5356 94.6115 24.8101 95.0924 24.9959C95.1941 25.0347 95.2683 25.1567 95.3481 25.2454C96.9449 27.0975 98.8414 28.5032 101.186 29.2463C101.403 29.3156 101.628 29.3739 101.851 29.4293C102.228 29.518 102.648 29.5125 102.824 29.9838C102.842 30.0181 102.867 30.0481 102.897 30.072C102.928 30.0959 102.963 30.1131 103 30.1225C103.401 30.2112 103.495 30.5328 103.605 30.8655C104.017 32.091 104.443 33.3138 104.863 34.5393C104.902 34.6502 104.935 34.7666 104.982 34.9219C104.49 35.0217 104.157 35.2518 104.303 35.9034C103.797 35.859 103.335 35.8369 102.879 35.7814C99.9051 35.4099 97.4397 34.0097 95.2738 31.9857C93.3848 30.1741 91.7805 28.0826 90.5161 25.7833C90.4825 25.7255 90.4531 25.6652 90.4282 25.6031C90.4191 25.5659 90.4154 25.5276 90.4172 25.4894ZM92.7974 24.9127C92.4126 24.9127 92.0278 24.9127 91.6431 24.9127C91.349 24.9127 91.0933 24.9127 91.0466 25.3036C91.0224 25.3889 90.9688 25.4627 90.8954 25.5116C90.7388 25.6252 90.758 25.7389 90.846 25.8803C91.0329 26.1798 91.2088 26.4875 91.3957 26.787C92.8575 29.2449 94.7708 31.3989 97.0329 33.1335C98.964 34.5873 101.267 35.4532 103.671 35.6289C103.714 35.6407 103.759 35.6432 103.804 35.636C103.848 35.6289 103.891 35.6123 103.928 35.5874C103.966 35.5626 103.998 35.5299 104.022 35.4917C104.047 35.4534 104.063 35.4104 104.069 35.3655C104.147 35.1623 104.281 34.9854 104.454 34.8553C104.619 34.7361 104.663 34.6419 104.597 34.4533C104.16 33.2001 103.734 31.9413 103.294 30.6908C103.233 30.5807 103.149 30.4859 103.047 30.4136C102.868 30.2555 102.684 30.103 102.497 29.9533C102.406 29.8658 102.299 29.7979 102.181 29.7537C99.4681 29.1742 97.2583 27.738 95.4278 25.6807C95.2131 25.4104 94.936 25.1975 94.6206 25.0607C94.3052 24.9238 93.9614 24.8673 93.6192 24.896C93.3471 24.9127 93.0723 24.9127 92.7974 24.9127Z" fill="#645F71"/>
<path d="M96.6539 27.841C97.1874 27.8831 97.698 28.0536 98.1311 28.3343C98.5643 28.6149 98.9037 28.9952 99.1131 29.4345C99.2734 29.7156 99.3416 30.0313 99.3099 30.3454C99.2781 30.6594 99.1477 30.9592 98.9335 31.2102C98.7194 31.4612 98.4302 31.6533 98.0991 31.7645C97.768 31.8757 97.4085 31.9014 97.0617 31.8388C95.7098 31.6738 94.7563 30.9442 94.5116 29.9126C94.2419 28.772 95.1013 27.8299 96.6539 27.841ZM96.381 28.1206C96.1492 28.1125 95.9183 28.1513 95.7057 28.2341C95.4931 28.3168 95.3043 28.4414 95.1534 28.5985C95.0025 28.7556 94.8935 28.9411 94.8345 29.1411C94.7755 29.341 94.768 29.5503 94.8127 29.7532C94.9821 30.7401 95.898 31.4306 97.1903 31.5732C97.47 31.6128 97.7564 31.5842 98.0193 31.4904C98.2822 31.3966 98.5117 31.2412 98.6834 31.0405C98.8552 30.8399 98.9628 30.6015 98.9948 30.3507C99.0268 30.1 98.9821 29.8462 98.8653 29.6163C98.6541 29.1812 98.3084 28.8088 97.8684 28.5424C97.4285 28.2761 96.9126 28.1269 96.381 28.1122V28.1206Z" fill="#645F71"/>
<path d="M97.6992 29.2915C97.6685 29.3363 97.631 29.3722 97.589 29.3967C97.5471 29.4213 97.5016 29.4339 97.4557 29.4339C97.4098 29.4339 97.3644 29.4213 97.3224 29.3967C97.2805 29.3722 97.2429 29.3363 97.2122 29.2915C97.1808 29.2502 97.1448 29.1942 97.1067 29.1883C97.005 29.181 96.9031 29.181 96.8014 29.1883C96.8142 29.3244 96.8438 29.4568 96.889 29.5804C96.9694 29.6892 97.0573 29.7878 97.1516 29.8752C97.2517 29.9871 97.3154 30.145 97.3296 30.3166C97.3438 30.4883 97.3074 30.6605 97.2279 30.798C97.1476 30.935 97.0309 31.0272 96.901 31.0562C96.7712 31.0852 96.6379 31.0488 96.5276 30.9542C96.394 30.8583 96.2752 30.7303 96.1774 30.5769C96.123 30.4248 96.0903 30.2609 96.0809 30.0934L96.1707 30.0433C96.3122 30.2036 96.4622 30.3504 96.6196 30.4825C96.7094 30.5474 96.8867 30.5916 96.9383 30.5267C97.0708 30.3646 96.9541 30.2143 96.8441 30.0963C96.7341 29.9784 96.6757 29.9194 96.5994 29.8192C96.4998 29.7067 96.4377 29.5474 96.4264 29.3755C96.4151 29.2036 96.4554 29.0327 96.5388 28.8994C96.6246 28.7609 96.7482 28.672 96.8833 28.6516C97.0183 28.6312 97.1541 28.681 97.2616 28.7903C97.403 28.9289 97.5354 29.1028 97.6992 29.2915Z" fill="#645F71"/>
</g>
<defs>
<clipPath id="clip0_523_3825">
<rect width="106" height="43" fill="white" transform="translate(0.599976 0.159668)"/>
</clipPath>
</defs>
</svg>
